<?xml version="1.0" standalone="no"?>
<!DOCTYPE svg PUBLIC "-//W3C//DTD SVG 1.1//EN" "http://www.w3.org/Graphics/SVG/1.1/DTD/svg11.dtd" >
<svg xmlns="http://www.w3.org/2000/svg" xmlns:xlink="http://www.w3.org/1999/xlink" version="1.1">
<metadata></metadata>
<defs>
<font id="ttsupermolot-lighuploadedfile" horiz-adv-x="1157" >
<font-face units-per-em="2048" ascent="1653" descent="-395" />
<missing-glyph horiz-adv-x="471" />
<glyph horiz-adv-x="0" />
<glyph unicode="&#xd;" horiz-adv-x="0" />
<glyph horiz-adv-x="0" />
<glyph unicode=" "  horiz-adv-x="471" />
<glyph unicode="&#x09;" horiz-adv-x="471" />
<glyph unicode="&#xa0;" horiz-adv-x="471" />
<glyph unicode="!" horiz-adv-x="481" d="M92 0l29 164h92l-29 -164h-92zM184 410l80 573l80 451h92l-80 -451l-120 -573h-52z" />
<glyph unicode="&#x22;" horiz-adv-x="624" d="M217 1004l23 245l32 185h82l-32 -185l-64 -245h-41zM514 1004l23 245l32 185h82l-33 -185l-63 -245h-41z" />
<glyph unicode="#" horiz-adv-x="1443" d="M25 379l14 82h266l242 502h-297l14 81h328l182 390h92l-182 -390h430l182 390h93l-183 -390h256l-14 -81h-287l-241 -502h317l-14 -82h-338l-178 -379h-93l179 379h-431l-178 -379h-92l178 379h-245zM397 461h430l242 502h-430z" />
<glyph unicode="$" d="M0 0l14 82h594q123 0 206 71.5t106 194.5l14 72q16 92 -27 150.5t-108 74.5l-404 92q-104 23 -159.5 99.5t-32.5 207.5l8 41q14 78 51 141.5t92.5 109.5t126 72t150.5 26h61l39 225h92l-39 -225h390l-11 -62l-24 -20h-523q-123 0 -206.5 -72t-106.5 -195l-8 -41 q-16 -92 22.5 -150t112.5 -75l404 -92q104 -23 159.5 -99.5t32.5 -207.5l-14 -72q-12 -76 -49 -140.5t-92.5 -110.5t-126 -71.5t-150.5 -25.5h-62l-40 -225h-93l41 225h-440z" />
<glyph unicode="%" horiz-adv-x="1597" d="M156 1004l37 204q18 109 100 177.5t199 68.5h81q117 0 174.5 -68.5t38.5 -177.5l-36 -204q-18 -109 -100.5 -177.5t-198.5 -68.5h-82q-117 0 -174.5 68.5t-38.5 177.5zM225 0l6 41l1117 1393h71l-8 -41l-1114 -1393h-72zM238 1004q-16 -86 20.5 -130.5t122.5 -44.5h82 q174 0 205 175l37 204q29 174 -144 174h-82q-86 0 -138.5 -44t-66.5 -130zM858 225l37 205q18 109 100 177.5t199 68.5h82q117 0 174 -68.5t39 -177.5l-37 -205q-18 -109 -100 -177t-199 -68h-82q-117 0 -174 68.5t-39 176.5zM940 225q-16 -86 20.5 -130t122.5 -44h82 q174 0 205 174l37 205q29 174 -143 174h-82q-86 0 -138.5 -44t-66.5 -130z" />
<glyph unicode="&#x26;" horiz-adv-x="1280" d="M37 187.5q-14 64.5 0 140.5l16 92q20 119 76.5 188.5t116.5 104.5q70 41 151 55l2 10q-37 45 -67.5 112.5t-14.5 164.5l7 30q14 78 51 141.5t92 109.5t126 72t150 26h379l-10 -62l-25 -20h-358q-123 0 -207 -72t-106 -195l-6 -30q-14 -76 19.5 -132.5t72.5 -103.5 l661 -778l-6 -41h-92l-145 174h-11q-33 -55 -84 -96q-47 -41 -113.5 -69.5t-162.5 -28.5h-215q-80 0 -142.5 25.5t-101.5 71.5t-53 110.5zM129 328q-23 -123 36.5 -195t182.5 -72h215q86 0 141.5 29t88.5 64q39 41 59 92l-373 440h-20q-123 0 -207 -71.5t-107 -194.5z" />
<glyph unicode="'" horiz-adv-x="327" d="M217 1004l23 245l32 185h82l-32 -185l-64 -245h-41z" />
<glyph unicode="(" horiz-adv-x="645" d="M73.5 -182.5q-14.5 63.5 0.5 141.5l227 1290q14 78 51 141.5t92.5 109.5t126 71.5t150.5 25.5h82l-15 -81h-81q-123 0 -207 -72t-107 -195l-227 -1290q-23 -123 36.5 -194.5t182.5 -71.5h82l-14 -82h-82q-80 0 -142.5 25.5t-101.5 71.5t-53.5 109.5z" />
<glyph unicode=")" horiz-adv-x="645" d="M-150 -389l15 82h80q123 0 207 71.5t106 194.5l227 1290q23 123 -36.5 195t-182.5 72h-82l15 81h82q80 0 142 -25.5t101 -71.5t53.5 -109.5t0.5 -141.5l-228 -1290q-14 -78 -51 -141.5t-92 -109.5t-126 -71.5t-151 -25.5h-80z" />
<glyph unicode="*" horiz-adv-x="757" d="M162 1157l18 41l256 -51l72 287h41l-31 -287l277 51l2 -41l-273 -90l123 -238l-47 -28l-145 213l-224 -215l-34 30l204 238z" />
<glyph unicode="+" horiz-adv-x="1003" d="M78 625l14 82h389l72 399h82l-72 -399h389l-14 -82h-389l-70 -400h-82l70 400h-389z" />
<glyph unicode="," horiz-adv-x="337" d="M-16 -205l65 369h92l-18 -103l-98 -266h-41z" />
<glyph unicode="-" horiz-adv-x="931" d="M78 625l14 82h789l-15 -82h-788z" />
<glyph unicode="." horiz-adv-x="337" d="M20 0l29 164h92l-28 -164h-93z" />
<glyph unicode="/" horiz-adv-x="993" d="M-80 -102l6 41l1123 1597h71l-8 -41l-1120 -1597h-72z" />
<glyph unicode="0" horiz-adv-x="1290" d="M118.5 187.5q-14.5 64.5 0.5 140.5l137 778q12 78 50 141.5t93.5 109.5t126 71.5t150.5 25.5h246q80 0 141 -25.5t100 -71.5t53.5 -109.5t2.5 -141.5l-138 -778q-14 -76 -51 -140.5t-92 -110.5t-126 -71.5t-150 -25.5h-246q-80 0 -142.5 25.5t-101.5 71.5t-53.5 110.5z M211 328q-23 -123 36.5 -195t182.5 -72h246q123 0 207 72t106 195l137 778q23 123 -36.5 194.5t-182.5 71.5h-245q-123 0 -207 -71.5t-107 -194.5z" />
<glyph unicode="1" horiz-adv-x="593" d="M174 1341l8 52l285 41h72l-252 -1434h-92l235 1341h-256z" />
<glyph unicode="2" horiz-adv-x="1116" d="M-82 0l14 82l781 594q49 37 91 73.5t74.5 77.5t56.5 91t36 116l8 51q23 123 -36.5 195t-182.5 72h-533l-16 20l10 62h553q80 0 142.5 -26t101.5 -72t53 -109.5t0 -141.5l-8 -51q-14 -76 -44 -137t-71 -111.5t-89 -91.5t-97 -80l-686 -522v-10h829l-14 -82h-973z" />
<glyph unicode="3" horiz-adv-x="1095" d="M-51 0l14 82h574q123 0 205.5 71.5t105.5 194.5l18 103q23 123 -36.5 194.5t-182.5 71.5h-328l15 82l629 542l2 11h-738l-16 20l10 62h881l-15 -82l-628 -543l-2 -10h205q80 0 142 -25.5t101 -72t53.5 -110t-0.5 -140.5l-18 -103q-12 -76 -49 -140.5t-92.5 -110.5 t-126 -71.5t-150.5 -25.5h-573z" />
<glyph unicode="4" horiz-adv-x="1177" d="M0 358l14 82l944 994h103l-176 -994h205l-15 -82h-205l-61 -358h-92l61 358h-778zM127 440h666l151 860h-10l-805 -849z" />
<glyph unicode="5" horiz-adv-x="1167" d="M51 0l15 82h542q123 0 206 71.5t106 194.5l22 123q23 123 -36.5 194.5t-182.5 71.5h-522l123 697h819l-10 -62l-25 -20h-707l-94 -533h430q80 0 142.5 -25.5t101.5 -71.5t53.5 -109.5t-0.5 -141.5l-22 -123q-12 -76 -49 -140.5t-92.5 -110.5t-126 -71.5t-150.5 -25.5 h-543z" />
<glyph unicode="6" horiz-adv-x="1228" d="M118.5 187.5q-14.5 64.5 0.5 140.5l133 757q14 78 51 141.5t92.5 109.5t126 72t150.5 26h502l-11 -62l-24 -20h-482q-123 0 -206.5 -72t-106.5 -195l-41 -235h492q80 0 141 -25.5t100 -71.5t53.5 -109.5t2.5 -141.5l-31 -174q-14 -76 -51 -140.5t-92.5 -110.5t-126 -71.5 t-150.5 -25.5h-225q-80 0 -142.5 25.5t-101.5 71.5t-53.5 110.5zM211 328q-23 -123 36.5 -195t182.5 -72h225q123 0 207 72t107 195l30 174q23 123 -36.5 194.5t-182.5 71.5h-491z" />
<glyph unicode="7" horiz-adv-x="1013" d="M176 1352l14 82h932l-14 -80l-821 -1354h-92l6 41l803 1300l2 11h-830z" />
<glyph unicode="8" horiz-adv-x="1208" d="M67.5 187.5q-14.5 64.5 0.5 140.5l18 112q18 100 63.5 161t94.5 93q57 37 123 54l2 10q-49 18 -82 57q-33 33 -50.5 90.5t-0.5 149.5l10 51q29 162 139.5 255t280.5 93h184q170 0 248 -93t49 -255l-10 -51q-16 -92 -55.5 -149.5t-77.5 -90.5q-47 -39 -103 -57l-2 -10 q59 -16 102 -54q39 -35 62.5 -94t5.5 -160l-18 -112q-14 -76 -51 -140.5t-92.5 -110.5t-126 -71.5t-150.5 -25.5h-266q-80 0 -142.5 25.5t-101.5 71.5t-53.5 110.5zM160 328q-23 -123 36.5 -195t182.5 -72h266q123 0 207 72t106 195l19 112q23 123 -36.5 195t-182.5 72h-266 q-123 0 -207 -72t-107 -195zM328 1055q-23 -123 36.5 -195t182.5 -72h184q123 0 207 72t106 195l11 51q23 123 -36.5 194.5t-182.5 71.5h-185q-123 0 -207 -71.5t-106 -194.5z" />
<glyph unicode="9" horiz-adv-x="1228" d="M102 0l15 82h501q123 0 206 71.5t106 194.5l43 236h-492q-80 0 -142.5 25.5t-101 71.5t-53 110.5t-0.5 140.5l31 174q12 78 50 141.5t93.5 109.5t126 71.5t150.5 25.5h225q80 0 141.5 -25.5t100.5 -71.5t53 -109.5t2 -141.5l-135 -758q-12 -76 -49 -140.5t-92.5 -110.5 t-126 -71.5t-150.5 -25.5h-502zM276 932q-23 -123 37 -194.5t183 -71.5h491l78 440q23 123 -36.5 194.5t-182.5 71.5h-225q-123 0 -207 -71.5t-107 -194.5z" />
<glyph unicode=":" horiz-adv-x="378" d="M41 0l29 164h92l-29 -164h-92zM195 881l28 163h92l-28 -163h-92z" />
<glyph unicode=";" horiz-adv-x="378" d="M4 -205l66 369h92l-19 -103l-98 -266h-41zM195 881l28 163h92l-28 -163h-92z" />
<glyph unicode="&#x3c;" horiz-adv-x="1013" d="M61 471l17 92l905 430l-16 -92l-795 -379v-10l659 -379l-16 -92z" />
<glyph unicode="=" horiz-adv-x="972" d="M76 430l14 82h768l-14 -82h-768zM143 819l15 82h768l-15 -82h-768z" />
<glyph unicode="&#x3e;" horiz-adv-x="1013" d="M6 41l17 92l794 379v10l-659 379l16 92l754 -430l-17 -92z" />
<glyph unicode="?" horiz-adv-x="1003" d="M160 1372l10 62h512q80 0 142.5 -26t101.5 -72t53 -109.5t0 -141.5l-8 -51q-12 -61 -38 -110.5t-60.5 -88t-74.5 -65.5t-77 -43l-133 -61q-68 -29 -117 -79t-65 -136l-9 -52h-92l8 52q23 117 88.5 182t157.5 104l133 62q59 25 113.5 80t73.5 155l8 51q23 123 -36.5 195 t-182.5 72h-492zM236 0l28 164h92l-28 -164h-92z" />
<glyph unicode="@" horiz-adv-x="1689" d="M109 276l155 881q12 74 49 135.5t92.5 106.5t126 70.5t150.5 25.5h666q154 0 230.5 -89t51.5 -228l-131 -748h-61l6 154h-10q-31 -49 -74 -86q-39 -37 -91 -62.5t-122 -25.5h-154q-66 0 -117 21.5t-83.5 60t-45 91t-2.5 113.5l11 52q10 61 41.5 113t78 91t104.5 60.5 t124 21.5h409l25 144q18 109 -35 172t-170 63h-665q-123 0 -207 -69.5t-105 -186.5l-155 -881q-20 -117 39 -186.5t182 -69.5h979l-15 -81h-978q-80 0 -141.5 25.5t-100.5 70.5t-54.5 106.5t-2.5 134.5zM838 696q-16 -92 30.5 -148t139.5 -56h153q70 0 124 34.5t93 77.5 q45 49 78 113l41 235h-410q-92 0 -157.5 -56t-81.5 -148z" />
<glyph unicode="A" horiz-adv-x="1218" d="M-61 0l6 41l757 1393h113l266 -1393l-6 -41h-92l-74 399h-665l-213 -399h-92zM289 481h604l-150 840h-10z" />
<glyph unicode="B" horiz-adv-x="1310" d="M102 0l252 1434h564q170 0 248 -94q56 -68 55 -172q0 -39 -7 -83l-6 -30q-16 -88 -54 -144.5t-77 -87.5q-47 -37 -102 -55l-2 -10q70 -12 119 -49q46 -35 72 -97q15 -36 15 -89q0 -37 -8 -83l-16 -92q-12 -76 -49 -140.5t-92.5 -110.5t-126 -71.5t-150.5 -25.5h-635z M209 82h543q123 0 205.5 71.5t105.5 194.5l16 92q6 34 6 65q-1 78 -43 130q-60 72 -182 72h-543zM332 788h471q123 0 207 72t106 195l6 30q6 34 6 65q0 78 -42 130q-60 72 -183 72h-471z" />
<glyph unicode="C" d="M121 348l131 737q14 78 51 141.5t92.5 109.5t126 72t150.5 26h563l-10 -62l-25 -20h-543q-123 0 -206.5 -72t-106.5 -195l-131 -737q-6 -34 -7 -64q0 -78 44 -130q60 -72 184 -72h563l-14 -82h-563q-80 0 -142.5 25.5t-101.5 71.5q-39 47 -53 111q-8 35 -8 72q0 33 6 68z " />
<glyph unicode="D" horiz-adv-x="1351" d="M102 0l252 1434h625q80 0 142.5 -26t101.5 -72t53 -110q7 -32 7 -67t-7 -74l-131 -737q-12 -76 -49 -140.5t-92.5 -110.5t-126 -71.5t-150.5 -25.5h-625zM209 82h532q123 0 206 71.5t106 194.5l131 737q6 34 6 64q0 79 -43 131q-60 72 -182 72h-533z" />
<glyph unicode="E" horiz-adv-x="1167" d="M102 0l252 1434h901l-10 -62l-24 -20h-789l-100 -574h614l-16 -82h-615l-106 -614h809l-14 -82h-902z" />
<glyph unicode="F" horiz-adv-x="1126" d="M102 0l252 1434h901l-10 -62l-24 -20h-789l-115 -645h605l-15 -82h-604l-108 -625h-93z" />
<glyph unicode="G" horiz-adv-x="1300" d="M121 348l131 737q14 78 51 141.5t92.5 109.5t126 72t150.5 26h563l-10 -62l-25 -20h-543q-123 0 -206.5 -72t-106.5 -195l-131 -737q-6 -34 -6 -64q0 -79 43 -130q61 -72 184 -72h522l121 686h92l-135 -768h-614q-80 0 -142.5 25.5t-101.5 71.5t-53 111q-8 34 -8 72 q0 33 6 68z" />
<glyph unicode="H" horiz-adv-x="1392" d="M102 0l252 1434h92l-114 -656h798l115 656h92l-252 -1434h-92l121 696h-799l-120 -696h-93z" />
<glyph unicode="I" horiz-adv-x="501" d="M102 0l252 1434h92l-251 -1434h-93z" />
<glyph unicode="J" horiz-adv-x="962" d="M-86 -20l14 81h379q123 0 207 72t107 195l194 1106h92l-194 -1106q-14 -76 -51 -140.5t-92.5 -110.5t-126 -71.5t-150.5 -25.5h-379z" />
<glyph unicode="K" horiz-adv-x="1249" d="M102 0l252 1434h92l-114 -656h389l504 656h92l-8 -41l-514 -656l297 -696l-7 -41h-92l-288 696h-390l-120 -696h-93z" />
<glyph unicode="L" horiz-adv-x="1126" d="M102 0l252 1434h92l-237 -1352h809l-14 -82h-902z" />
<glyph unicode="M" horiz-adv-x="1812" d="M20 0l7 41l430 1393h123l274 -1117h10l668 1117h123l-62 -1393l-6 -41h-92l64 1290h-11l-653 -1085h-113l-268 1085h-10l-391 -1290h-93z" />
<glyph unicode="N" horiz-adv-x="1392" d="M102 0l252 1434h103l563 -1280h10l35 256l180 1024h92l-252 -1434h-102l-563 1280h-10l-35 -256l-180 -1024h-93z" />
<glyph unicode="O" horiz-adv-x="1372" d="M118 188q-7 32 -7 66q0 36 8 74l137 778q12 78 50 141.5t93.5 109.5t126 71.5t150.5 25.5h328q80 0 141 -25.5t100 -71.5q39 -45 53 -109q8 -34 7 -73q0 -33 -5 -69l-137 -778q-14 -76 -51 -140.5t-92 -110.5t-126 -71.5t-151 -25.5h-327q-80 0 -142.5 25.5t-102 72 t-53.5 110.5zM211 328q-6 -34 -7 -65q0 -78 44 -130q60 -72 182 -72h328q123 0 207 72t106 195l137 778q6 34 6 65q0 77 -42 129q-60 72 -183 72h-327q-123 0 -207 -71.5t-107 -194.5z" />
<glyph unicode="P" horiz-adv-x="1290" d="M102 0l252 1434h604q80 0 142.5 -26t101.5 -72q40 -46 54 -110q7 -31 6 -65q0 -36 -7 -76l-38 -225q-14 -76 -51.5 -140.5t-92.5 -110.5t-125.5 -71.5t-150.5 -25.5h-512l-90 -512h-93zM299 594h512q123 0 207 71.5t106 194.5l39 225q6 34 6 65q-1 78 -43 130 q-60 72 -182 72h-512z" />
<glyph unicode="Q" horiz-adv-x="1372" d="M118 188q-7 31 -7 66t8 74l137 778q12 78 50 141.5t93.5 109.5t126 71.5t150.5 25.5h328q80 0 141 -25.5t100 -71.5t53 -109q8 -35 8 -73q0 -33 -6 -69l-137 -778q-14 -76 -51 -140.5t-92 -110.5t-126 -71.5t-151 -25.5h-122l157 -267l-8 -41h-92l-139 308h-123 q-80 0 -142.5 25.5t-101.5 71.5t-54 111zM211 328q-6 -34 -6 -65q0 -78 43 -130q59 -72 182 -72h328q123 0 207 72t106 195l137 778q6 34 6 65q0 78 -42 129q-60 72 -183 72h-327q-123 0 -207 -71.5t-107 -194.5z" />
<glyph unicode="R" horiz-adv-x="1290" d="M102 0l252 1434h604q80 0 142.5 -26t101.5 -72q40 -46 54 -110q7 -31 6 -65q0 -36 -7 -76l-28 -163q-20 -119 -78.5 -186.5t-120.5 -102.5q-72 -39 -158 -49l242 -543l-6 -41h-92l-248 573h-471l-100 -573h-93zM309 655h512q123 0 207 72t107 195l28 163q6 34 6 65 q-1 78 -43 130q-60 72 -182 72h-512z" />
<glyph unicode="S" d="M0 0l14 82h594q123 0 206 71.5t106 194.5l14 72q4 25 4 47q0 59 -31 103q-43 58 -108 75l-404 92q-103 23 -159 99q-39 54 -40 136q0 34 7 72l8 41q14 78 51 141.5t92.5 109.5t126 72t150.5 26h543l-11 -62l-24 -20h-523q-123 0 -206.5 -72t-106.5 -195l-8 -41 q-5 -27 -5 -51q0 -58 28 -99q38 -58 112 -75l404 -92q104 -23 160 -99q39 -54 38 -136q0 -34 -6 -72l-14 -72q-12 -76 -49 -140.5t-92.5 -110.5t-126 -71.5t-150.5 -25.5h-594z" />
<glyph unicode="T" horiz-adv-x="1075" d="M156 1352l14 82h1034l-10 -62l-25 -20h-450l-238 -1352h-92l238 1352h-471z" />
<glyph unicode="U" horiz-adv-x="1392" d="M160 188q-7 32 -8 66q0 36 8 74l194 1106h92l-194 -1106q-6 -34 -7 -65q-1 -78 43 -130q60 -72 183 -72h266q123 0 207 72t107 195l194 1106h92l-194 -1106q-14 -76 -51 -140.5t-92.5 -110.5t-126 -71.5t-150.5 -25.5h-266q-80 0 -142.5 25.5t-101.5 72t-53 110.5z" />
<glyph unicode="V" horiz-adv-x="1177" d="M182 1393l8 41h93l217 -1321h10l684 1321h92l-8 -41l-735 -1393h-113z" />
<glyph unicode="W" horiz-adv-x="1873" d="M203 1393l8 41h92l129 -1301h10l549 1075h113l168 -1075h10l588 1301h92l-8 -41l-643 -1393h-113l-168 1085h-10l-549 -1085h-113z" />
<glyph unicode="X" horiz-adv-x="1177" d="M-61 0l6 41l604 696l-326 656l8 41h93l299 -625h10l520 625h92l-8 -41l-555 -656l358 -696l-6 -41h-92l-334 666h-10l-567 -666h-92z" />
<glyph unicode="Y" d="M172 1393l8 41h92l297 -871h11l604 871h92l-8 -41l-666 -932l-80 -461h-92l80 461z" />
<glyph unicode="Z" horiz-adv-x="1095" d="M-51 0l14 82l1102 1259l2 11h-840l-16 20l10 62h973l-14 -82l-1104 -1260v-10h880l-14 -82h-993z" />
<glyph unicode="[" horiz-adv-x="655" d="M33 -389l350 1986h430l-14 -81h-338l-322 -1823h338l-14 -82h-430z" />
<glyph unicode="\" horiz-adv-x="993" d="M201 1495l8 41h82l547 -1597l-7 -41h-81z" />
<glyph unicode="]" horiz-adv-x="655" d="M-150 -389l15 82h336l321 1823h-338l15 81h430l-350 -1986h-429z" />
<glyph unicode="^" horiz-adv-x="849" d="M131 922l397 512h93l217 -512h-93l-180 430h-10l-332 -430h-92z" />
<glyph unicode="_" horiz-adv-x="788" d="M-135 -307l14 82h746l-15 -82h-745z" />
<glyph unicode="`" horiz-adv-x="430" d="M236 1454h102l108 -307h-71z" />
<glyph unicode="a" horiz-adv-x="1085" d="M25 266l10 51q10 61 42 113.5t78 91.5t104 60.5t124 21.5h451l26 154q4 23 4 44q0 62 -35 104q-47 56 -139 57h-450l14 81h451q66 0 116.5 -21.5t83.5 -60t45 -90.5q7 -28 7 -59q0 -27 -5 -55l-133 -758h-61l6 154h-10q-31 -49 -74 -86q-39 -37 -91 -62.5t-122 -25.5 h-195q-66 0 -117 21.5t-83 60.5q-34 38 -46 90q-7 28 -6 59q0 26 5 55zM117 266q-4 -23 -4 -44q0 -62 35 -104q47 -56 139 -57h194q70 0 124 35t93 78q45 49 78 113l41 235h-450q-92 0 -158 -56t-82 -149z" />
<glyph unicode="b" d="M61 0l252 1434h93l-70 -390h461q66 0 117 -21.5t83.5 -60t44.5 -90.5q7 -28 7 -59q0 -27 -5 -55l-83 -471q-10 -61 -41 -113.5t-77 -91.5t-104.5 -60.5t-124.5 -21.5h-553zM168 82h461q92 0 157.5 56.5t81.5 148.5l84 471q4 23 4 44q0 62 -35 104q-47 56 -139 57h-460z " />
<glyph unicode="c" horiz-adv-x="962" d="M90 287l84 471q10 61 41 113.5t77 91t104.5 60t123.5 21.5h471l-10 -61l-25 -20h-450q-92 0 -157.5 -56.5t-82.5 -148.5l-84 -471q-4 -23 -5 -44q0 -63 36 -105q47 -56 139 -56h471l-14 -82h-471q-66 0 -117 21.5t-84 60.5t-45 91q-7 28 -7 60q0 26 5 54z" />
<glyph unicode="d" d="M86 266l88 492q10 61 41 113.5t77 91t104.5 60t123.5 21.5h461l70 390h92l-252 -1434h-62l7 154h-11q-31 -49 -73 -86q-39 -37 -91.5 -62.5t-121.5 -25.5h-205q-66 0 -117 21.5t-84 60t-45 90.5q-7 29 -7 60q0 26 5 54zM178 266q-4 -23 -5 -44q0 -62 36 -104 q47 -56 139 -57h205q70 0 124 35t93 78q45 49 78 113l119 676h-461q-92 0 -157.5 -56.5t-82.5 -148.5z" />
<glyph unicode="e" horiz-adv-x="1116" d="M90 287l88 491q10 61 41 113.5t77 91.5t104.5 60.5t123.5 21.5h236q66 0 117 -21.5t83 -60.5q34 -39 46 -91q7 -29 6 -61q0 -25 -4 -53l-56 -307h-737l-33 -184q-4 -23 -5 -44q0 -63 36 -105q47 -56 139 -56h502l-14 -82h-502q-66 0 -117 21.5t-84 60.5t-45 91 q-7 28 -7 60q0 26 5 54zM229 553h645l41 225q4 24 4 45q-1 61 -35 103q-46 56 -139 57h-235q-92 0 -158 -56.5t-82 -148.5z" />
<glyph unicode="f" horiz-adv-x="706" d="M61 0l205 1167q10 61 42 113.5t78 91.5t104.5 60.5t123.5 21.5h287l-12 -61l-23 -21h-266q-92 0 -158.5 -56t-83.5 -149l-45 -256h369l-14 -82h-369l-145 -829h-93z" />
<glyph unicode="g" horiz-adv-x="1064" d="M-53 -61l6 30q12 74 46 121t71 76q41 33 90 49l2 10q-16 6 -27 23q-10 12 -15 33.5t1 56.5l2 20q6 39 25.5 62.5t37.5 38.5q25 14 52 22l2 11q-31 16 -54 49q-20 29 -30 73q-5 19 -5 44q0 30 7 69l10 51q10 61 41 113.5t77 91.5t104.5 60.5t123.5 21.5h236q47 47 93 92 t93 92h82l-6 -41l-172 -153l-2 -11q49 -20 82 -55q33 -33 51 -83q11 -30 11 -70q0 -27 -5 -58l-10 -51q-10 -61 -42 -113.5t-78 -91.5t-104.5 -60.5t-124.5 -21.5h-317q-31 0 -60.5 -25.5t-35.5 -56.5l-2 -20q-6 -31 15.5 -56.5t51.5 -25.5h379q66 0 116 -21.5t83 -60.5 t45 -91q7 -28 7 -60q0 -26 -5 -54l-6 -30q-10 -61 -41 -113.5t-77 -91.5t-104.5 -60.5t-123.5 -21.5h-348q-66 0 -117 21.5t-84 60.5t-45 91q-7 28 -7 60q0 26 5 54zM39 -61q-4 -23 -4 -44q0 -62 35 -105q47 -56 139 -56h348q92 0 157.5 56t82.5 149l6 30q4 23 4 44 q0 62 -35 105q-47 56 -139 56h-348q-92 0 -158 -56.5t-82 -148.5zM250 727q-4 -24 -4 -45q0 -62 34 -104q46 -56 138 -56h215q92 0 158.5 56.5t82.5 148.5l11 51q4 23 4 44q0 62 -35 104q-47 57 -139 57h-215q-92 0 -158 -56.5t-82 -148.5z" />
<glyph unicode="h" horiz-adv-x="1177" d="M61 0l252 1434h93l-70 -390h461q66 0 117 -21.5t83.5 -60t44.5 -90.5q7 -28 7 -59q0 -27 -5 -55l-133 -758h-92l133 758q4 23 4 44q0 62 -35 104q-47 56 -139 57h-460l-168 -963h-93z" />
<glyph unicode="i" horiz-adv-x="419" d="M61 0l183 1044h92l-182 -1044h-93zM272 1198l41 236h93l-41 -236h-93z" />
<glyph unicode="j" horiz-adv-x="460" d="M-244 -348l15 82h82q92 0 156.5 56t80.5 149l195 1105h92l-195 -1105q-10 -61 -40.5 -113.5t-77 -91.5t-104.5 -60.5t-122 -21.5h-82zM313 1198l41 236h92l-40 -236h-93z" />
<glyph unicode="k" horiz-adv-x="1044" d="M61 0l252 1434h93l-150 -850h328l356 460h92l-6 -40l-369 -461l230 -502l-6 -41h-93l-219 502h-327l-88 -502h-93z" />
<glyph unicode="l" horiz-adv-x="522" d="M111 287l202 1147h93l-203 -1147q-4 -23 -4 -44q0 -63 35 -105q47 -56 139 -56h20l-14 -82h-21q-66 0 -117 21.5t-83 60.5q-34 39 -46 91q-7 28 -6 58q0 27 5 56z" />
<glyph unicode="m" horiz-adv-x="1751" d="M61 0l183 1044h61l-6 -153h10q31 49 74 88q39 35 91 60.5t122 25.5h113q74 0 117.5 -23.5t70.5 -52.5q29 -35 41 -78h10q27 43 66 78q35 31 83 53.5t113 22.5h164q66 0 117 -21.5t84 -60.5t45 -91q7 -28 6 -60q0 -26 -4 -54l-137 -778h-92l137 778q4 23 4 44 q0 62 -35 104q-47 56 -139 57h-164q-92 0 -157.5 -56.5t-82.5 -148.5l-137 -778h-92l137 778q4 23 4 44q0 62 -35 104q-47 56 -139 57h-112q-70 0 -124.5 -35t-92.5 -78q-45 -49 -78 -112l-133 -758h-93z" />
<glyph unicode="n" horiz-adv-x="1177" d="M61 0l183 1044h61l-6 -153h10q31 49 74 88q39 35 91 60.5t122 25.5h205q66 0 117 -21.5t83.5 -60.5t44.5 -91q7 -29 7 -61q0 -26 -4 -53l-138 -778h-92l137 778q4 24 4 45q0 61 -34 103q-46 56 -140 57h-204q-70 0 -124.5 -35t-92.5 -78q-45 -49 -78 -112l-133 -758h-93z " />
<glyph unicode="o" horiz-adv-x="1146" d="M86 266l92 512q10 61 41 113.5t77 91.5t104.5 60.5t123.5 21.5h267q66 0 116.5 -21.5t83.5 -60.5t45 -91q7 -29 6 -60q0 -26 -4 -54l-92 -512q-10 -61 -41 -113.5t-77 -91t-104 -60t-124 -21.5h-266q-66 0 -117 21.5t-84 60t-45 90.5q-7 29 -7 60q0 26 5 54zM178 266 q-4 -23 -5 -44q0 -62 36 -104q47 -56 139 -57h266q92 0 158 56.5t82 148.5l92 512q4 23 4 44q0 62 -35 104q-47 56 -139 57h-266q-92 0 -157.5 -56.5t-82.5 -148.5z" />
<glyph unicode="p" d="M0 -348l244 1392h61l-6 -153h10q31 49 74 88q39 35 91 60.5t122 25.5h205q66 0 117 -21.5t83.5 -60.5t44.5 -91q7 -29 7 -61q0 -25 -4 -53l-88 -491q-10 -61 -41 -113.5t-77 -91.5t-104.5 -60.5t-124.5 -21.5h-460l-62 -348h-92zM168 82h461q92 0 157.5 56.5t81.5 148.5 l88 491q4 23 4 44q0 62 -35 104q-47 57 -139 57h-204q-70 0 -124.5 -35t-92.5 -78q-45 -49 -78 -112z" />
<glyph unicode="q" d="M90 287l84 471q10 61 41 113.5t77 91t104.5 60t123.5 21.5h553l-244 -1392h-92l62 348h-461q-66 0 -117 21.5t-84 60.5t-45 91q-7 28 -7 60q0 26 5 54zM182 287q-4 -23 -4 -44q0 -62 35 -105q47 -56 139 -56h461l154 881h-461q-92 0 -157.5 -56.5t-82.5 -148.5z" />
<glyph unicode="r" horiz-adv-x="727" d="M61 0l183 1044h61l-6 -153h10q31 49 74 88q39 35 91 60.5t122 25.5h195l-17 -92h-194q-70 0 -124.5 -34t-90.5 -73q-45 -49 -78 -108l-133 -758h-93z" />
<glyph unicode="s" horiz-adv-x="962" d="M-20 0l14 82h512q92 0 151.5 51t75.5 143q3 18 3 35q0 46 -24 79q-34 44 -102 61l-305 71q-111 27 -156 82q-31 38 -31 100q0 29 7 64q23 123 113 199.5t221 76.5h481l-10 -61l-25 -20h-461q-92 0 -151.5 -51.5t-75.5 -143.5q-3 -20 -4 -37q1 -43 23 -71q30 -38 106 -56 l303 -72q111 -27 157 -83q31 -37 31 -102q0 -32 -8 -71q-23 -123 -112.5 -199.5t-220.5 -76.5h-512z" />
<glyph unicode="t" horiz-adv-x="757" d="M106 963l15 81h174l98 318h51l-57 -318h338l-14 -81h-338l-119 -676q-4 -23 -5 -44q0 -63 36 -105q47 -56 139 -56h184l-14 -82h-184q-66 0 -117 21.5t-84 60.5t-45 91q-7 28 -7 60q0 26 5 54l119 676h-175z" />
<glyph unicode="u" horiz-adv-x="1177" d="M106 266l138 778h92l-137 -778q-4 -24 -4 -45q1 -61 35 -103q46 -56 139 -57h204q70 0 124.5 35t93.5 78q45 49 77 113l133 757h93l-183 -1044h-61l6 154h-10q-31 -49 -74 -86q-39 -37 -91 -62.5t-122 -25.5h-205q-66 0 -117 21.5t-83 60.5q-34 38 -46 90q-7 29 -6 61 q0 26 4 53z" />
<glyph unicode="v" horiz-adv-x="972" d="M115 1004l6 40h92l182 -942h11l514 942h92l-6 -40l-566 -1004h-112z" />
<glyph unicode="w" horiz-adv-x="1464" d="M135 1004l6 40h92l95 -921h10l393 778h113l119 -778h10l418 921h92l-6 -40l-473 -1004h-103l-129 788h-10l-404 -788h-102z" />
<glyph unicode="x" horiz-adv-x="972" d="M-51 0l6 39l457 504l-256 461l6 40h82l241 -440h11l393 440h82l-6 -40l-420 -461l280 -504l-6 -39h-92l-254 481h-10l-422 -481h-92z" />
<glyph unicode="y" horiz-adv-x="983" d="M-10 -348l14 82h51q86 0 167 69.5t134 186.5l-241 1014l6 40h92l203 -942h10l504 942h92l-6 -40l-567 -1014q-51 -92 -99.5 -156.5t-95.5 -104.5t-99.5 -58.5t-113.5 -18.5h-51z" />
<glyph unicode="z" horiz-adv-x="931" d="M-41 0l14 82l838 870l2 11h-645l-16 20l10 61h788l-14 -81l-840 -871v-10h686l-14 -82h-809z" />
<glyph unicode="{" horiz-adv-x="675" d="M37 563l16 92q43 0 83 16.5t73 44t55.5 64.5t30.5 80l67 389q14 78 51.5 141.5t92.5 109.5t125.5 71.5t150.5 25.5h52l-15 -81h-51q-123 0 -207 -72t-106 -195l-68 -389q-14 -78 -51 -125t-78 -73q-45 -33 -100 -48v-10q49 -14 84 -45q33 -29 51 -76t4 -125l-70 -399 q-23 -123 37 -194.5t182 -71.5h52l-15 -82h-51q-80 0 -142.5 25.5t-101 71.5t-53 109.5t-0.5 141.5l70 399q16 86 -33 145.5t-135 59.5z" />
<glyph unicode="|" horiz-adv-x="501" d="M41 -348l350 1986h92l-350 -1986h-92z" />
<glyph unicode="}" horiz-adv-x="675" d="M-150 -389l15 82h49q123 0 206.5 71.5t106.5 194.5l70 399q14 78 51 125t78 76q45 31 100 45v10q-49 14 -84 48q-33 27 -51 73.5t-4 124.5l68 389q23 123 -37 195t-182 72h-52l15 81h51q80 0 142.5 -25.5t101 -71.5t53 -109.5t0.5 -141.5l-68 -389q-16 -86 33 -145.5 t135 -59.5l-16 -92q-43 0 -83 -16.5t-73 -44t-55.5 -64.5t-30.5 -80l-70 -399q-14 -78 -51 -141.5t-92 -109.5t-125.5 -71.5t-150.5 -25.5h-50z" />
<glyph unicode="~" horiz-adv-x="1003" d="M68 502l32 184q12 78 70.5 126t144.5 48h21q61 0 90 -22.5t68 -69.5l108 -133q27 -31 49.5 -51.5t61.5 -20.5h20q47 0 80 27.5t41 75.5l33 184h82l-33 -184q-14 -78 -71.5 -126t-143.5 -48h-21q-61 0 -90.5 22.5t-66.5 69.5l-111 133q-25 31 -48.5 51t-61.5 20h-21 q-47 0 -79 -27.5t-40 -74.5l-32 -184h-82z" />
<glyph unicode="&#xa2;" horiz-adv-x="962" d="M90 287l84 471q10 61 41 113.5t77 91t104.5 60t123.5 21.5h113l39 216h92l-39 -216h266l-10 -61l-25 -20h-450q-92 0 -157.5 -56.5t-82.5 -148.5l-84 -471q-16 -92 31 -148.5t139 -56.5h471l-14 -82h-266l-39 -215h-92l39 215h-113q-66 0 -117 21.5t-84 60.5t-45 91 t-2 114z" />
<glyph unicode="&#xa3;" horiz-adv-x="1075" d="M-92 0l14 82h72q68 27 125 65q51 35 93 86t54 125l66 369h-174l14 82h174l57 328q12 70 47 128t85.5 100t115 65.5t137.5 23.5h185l-12 -61l-23 -21h-164q-49 0 -96 -18.5t-84 -50t-62.5 -74.5t-35.5 -92l-58 -328h359l-15 -82h-358l-66 -369q-12 -74 -48 -124t-74 -82 q-45 -37 -99 -60v-10h789l-15 -82h-1003z" />
<glyph unicode="&#xa5;" d="M94 246l15 82h378l23 133l-41 112h-317l14 82h276l-270 738l8 41h92l297 -871h11l604 871h92l-8 -41l-529 -738h277l-15 -82h-317l-82 -112l-22 -133h378l-14 -82h-379l-43 -246h-92l43 246h-379z" />
<glyph unicode="&#xa8;" horiz-adv-x="624" d="M199 1249l32 185h93l-33 -185h-92zM567 1249l33 185h92l-33 -185h-92z" />
<glyph unicode="&#xa9;" horiz-adv-x="1843" d="M111 287l151 860q29 162 139.5 255t280.5 93h799q170 0 248 -93t49 -255l-152 -860q-29 -162 -139.5 -255t-280.5 -93h-798q-170 0 -248 93t-49 255zM203 287q-23 -125 36.5 -196t182.5 -71h799q123 0 206.5 71t106.5 196l152 860q23 125 -37 195.5t-183 70.5h-798 q-123 0 -207 -70.5t-107 -195.5zM618 614l37 205q10 57 39 106.5t71 84t94 55t110 20.5h307l-10 -61l-25 -20h-287q-78 0 -134 -49.5t-72 -135.5l-37 -205q-14 -86 25.5 -135t117.5 -49h307l-16 -82h-307q-117 0 -178.5 75t-41.5 191z" />
<glyph unicode="&#xab;" horiz-adv-x="880" d="M96 553l281 369h82l-6 -31l-265 -338l146 -338l-6 -31h-82zM455 553l280 369h82l-6 -31l-264 -338l145 -338l-6 -31h-82z" />
<glyph unicode="&#xad;" horiz-adv-x="931" d="M78 625l14 82h789l-15 -82h-788z" />
<glyph unicode="&#xae;" horiz-adv-x="1843" d="M111 287l151 860q29 162 139.5 255t280.5 93h799q170 0 248 -93t49 -255l-152 -860q-29 -162 -139.5 -255t-280.5 -93h-798q-170 0 -248 93t-49 255zM203 287q-23 -125 36.5 -196t182.5 -71h799q123 0 206.5 71t106.5 196l152 860q23 125 -37 195.5t-183 70.5h-798 q-123 0 -207 -70.5t-107 -195.5zM612 348l131 737h390q98 0 146 -55.5t30 -159.5l-2 -20q-12 -70 -45 -110t-68 -62q-41 -25 -88 -33l117 -266l-6 -31h-93l-112 287h-256l-51 -287h-93zM770 717h297q61 0 104 35.5t54 97.5l2 20q10 61 -18.5 97.5t-90.5 36.5h-297z" />
<glyph unicode="&#xb4;" horiz-adv-x="430" d="M180 1147l219 307h103l-250 -307h-72z" />
<glyph unicode="&#xb8;" horiz-adv-x="532" d="M-102 -471l10 72h194q94 0 109 92l6 31q6 39 -11.5 65.5t-64.5 26.5h-133l33 184h82l-21 -113h52q78 0 117.5 -47t27.5 -116l-6 -31q-12 -70 -68.5 -117t-134.5 -47h-192z" />
<glyph unicode="&#xbb;" horiz-adv-x="880" d="M51 184l6 31l265 338l-146 338l6 31h82l150 -369l-281 -369h-82zM410 184l6 31l264 338l-145 338l6 31h82l149 -369l-280 -369h-82z" />
<glyph unicode="&#x2c6;" horiz-adv-x="757" d="M176 1126l316 328h81l197 -328h-82l-168 256l-262 -256h-82z" />
<glyph unicode="&#x2da;" horiz-adv-x="583" d="M203 1270l12 71q6 35 26.5 67t49 55.5t64.5 38t75 14.5h51q78 0 122 -52.5t32 -122.5l-12 -71q-6 -35 -25.5 -67t-49.5 -55.5t-66 -37.5t-74 -14h-52q-78 0 -122 52t-31 122zM274 1270q-8 -47 18.5 -80t74.5 -33h51q47 0 86 33t47 80l12 71q8 47 -18.5 80t-73.5 33h-51 q-47 0 -86 -33t-47 -80z" />
<glyph unicode="&#x2dc;" horiz-adv-x="675" d="M186 1178l23 133q10 53 51 88t94 35q39 0 61.5 -20.5t49.5 -51.5l57 -82q14 -16 27.5 -28.5t36.5 -12.5q51 0 61 51l23 133h71l-22 -133q-10 -53 -51 -88t-95 -35q-39 0 -61.5 20.5t-48.5 51.5l-57 82q-14 16 -27.5 28.5t-36.5 12.5q-51 0 -61 -51l-23 -133h-72z" />
<glyph unicode="&#x401;" horiz-adv-x="1167" d="M102 0l252 1434h901l-10 -62l-24 -20h-789l-100 -574h614l-16 -82h-615l-106 -614h809l-14 -82h-902zM602 1628l32 185h93l-33 -185h-92zM970 1628l33 185h92l-33 -185h-92z" />
<glyph unicode="&#x402;" horiz-adv-x="1402" d="M135 1352l15 82h890l-10 -62l-24 -20h-410l-84 -471h461q80 0 142.5 -26t101 -72t53 -109.5t0.5 -141.5l-39 -225q-14 -76 -51 -140.5t-92.5 -110.5t-126 -71.5t-150.5 -25.5h-82l14 82h82q123 0 207 71.5t107 194.5l39 225q23 123 -37 195t-183 72h-460l-140 -799h-92 l238 1352h-369z" />
<glyph unicode="&#x403;" horiz-adv-x="1034" d="M102 0l252 1434h830l-10 -62l-25 -20h-717l-237 -1352h-93zM758 1577l219 307h103l-250 -307h-72z" />
<glyph unicode="&#x404;" d="M121 348l131 737q14 78 51 141.5t92.5 109.5t126 72t150.5 26h563l-10 -62l-25 -20h-543q-123 0 -206.5 -72t-106.5 -195l-55 -317h563l-14 -82h-564l-61 -338q-23 -123 37.5 -194.5t183.5 -71.5h563l-14 -82h-563q-80 0 -142.5 25.5t-101.5 71.5t-53 110.5t-2 140.5z " />
<glyph unicode="&#x405;" d="M0 0l14 82h594q123 0 206 71.5t106 194.5l14 72q16 92 -27 150.5t-108 74.5l-404 92q-104 23 -159.5 99.5t-32.5 207.5l8 41q14 78 51 141.5t92.5 109.5t126 72t150.5 26h543l-11 -62l-24 -20h-523q-123 0 -206.5 -72t-106.5 -195l-8 -41q-16 -92 22.5 -150t112.5 -75 l404 -92q104 -23 159.5 -99.5t32.5 -207.5l-14 -72q-12 -76 -49 -140.5t-92.5 -110.5t-126 -71.5t-150.5 -25.5h-594z" />
<glyph unicode="&#x406;" horiz-adv-x="501" d="M102 0l252 1434h92l-251 -1434h-93z" />
<glyph unicode="&#x407;" horiz-adv-x="440" d="M82 0l252 1434h92l-251 -1434h-93zM174 1628l32 185h93l-33 -185h-92zM542 1628l33 185h92l-33 -185h-92z" />
<glyph unicode="&#x408;" horiz-adv-x="962" d="M-86 -20l14 81h379q123 0 207 72t107 195l194 1106h92l-194 -1106q-14 -76 -51 -140.5t-92.5 -110.5t-126 -71.5t-150.5 -25.5h-379z" />
<glyph unicode="&#x409;" horiz-adv-x="2088" d="M-104 -20l12 81h72q78 0 151.5 68t110.5 199l317 1106h737l-98 -553h461q80 0 142.5 -26t101.5 -72t53 -109.5t0 -141.5l-33 -184q-12 -76 -49 -140.5t-92.5 -110.5t-126 -71.5t-150.5 -25.5h-553l238 1352h-563l-293 -1024q-49 -170 -147.5 -259t-221.5 -89h-69z M1059 82h461q123 0 205.5 71.5t105.5 194.5l33 184q23 123 -37 195t-182 72h-461z" />
<glyph unicode="&#x40a;" horiz-adv-x="2058" d="M102 0l252 1434h92l-104 -594h727l105 594h92l-105 -594h461q80 0 141.5 -26t100.5 -72t53 -109.5t2 -140.5l-27 -144q-12 -76 -49 -140.5t-92 -110.5t-126 -71.5t-150 -25.5h-553l133 758h-727l-133 -758h-93zM1028 82h461q123 0 206 71.5t105 194.5l27 144 q23 123 -36.5 194.5t-182.5 71.5h-461z" />
<glyph unicode="&#x40b;" horiz-adv-x="1443" d="M135 1352l15 82h890l-10 -62l-24 -20h-410l-84 -471h461q80 0 142.5 -26t101 -72t53 -109.5t0.5 -141.5l-92 -532h-93l93 532q23 123 -37 195t-183 72h-460l-140 -799h-92l238 1352h-369z" />
<glyph unicode="&#x40c;" horiz-adv-x="1249" d="M102 0l252 1434h92l-114 -656h389l504 656h92l-8 -41l-514 -656l297 -696l-7 -41h-92l-288 696h-390l-120 -696h-93zM788 1577l219 307h103l-250 -307h-72z" />
<glyph unicode="&#x40e;" horiz-adv-x="1126" d="M78 -20l14 81h82q78 0 160 69t139 177l-291 1086l8 41h93l260 -1024h10l590 1024h92l-8 -41l-641 -1086q-100 -170 -197.5 -248.5t-228.5 -78.5h-82zM502 1802l10 62h82l-10 -62q-25 -133 98 -133h185q123 0 147 133l10 62h82l-10 -62q-16 -92 -83 -148.5t-159 -56.5 h-184q-92 0 -138 56.5t-30 148.5z" />
<glyph unicode="&#x40f;" horiz-adv-x="1392" d="M102 0l252 1434h92l-237 -1352h799l237 1352h92l-252 -1434h-440l-72 -287h-61l31 287h-441z" />
<glyph unicode="&#x410;" horiz-adv-x="1218" d="M-61 0l6 41l757 1393h113l266 -1393l-6 -41h-92l-74 399h-665l-213 -399h-92zM289 481h604l-150 840h-10z" />
<glyph unicode="&#x411;" horiz-adv-x="1269" d="M102 0l252 1434h881l-10 -62l-25 -20h-768l-90 -512h512q80 0 141.5 -26t100.5 -72t53 -109.5t2 -140.5l-27 -144q-12 -76 -49 -140.5t-92 -110.5t-126 -71.5t-150 -25.5h-605zM209 82h512q123 0 206 71.5t105 194.5l27 144q23 123 -36.5 194.5t-182.5 71.5h-512z" />
<glyph unicode="&#x412;" horiz-adv-x="1310" d="M102 0l252 1434h564q170 0 247.5 -93.5t48.5 -255.5l-6 -30q-16 -88 -54 -144.5t-77 -87.5q-47 -37 -102 -55l-2 -10q70 -12 119 -49q45 -35 71.5 -97.5t7.5 -171.5l-16 -92q-12 -76 -49 -140.5t-92.5 -110.5t-126 -71.5t-150.5 -25.5h-635zM209 82h543q123 0 205.5 71.5 t105.5 194.5l16 92q23 123 -36.5 195t-182.5 72h-543zM332 788h471q123 0 207 72t106 195l6 30q23 123 -36.5 195t-182.5 72h-471z" />
<glyph unicode="&#x413;" horiz-adv-x="1034" d="M102 0l252 1434h830l-10 -62l-25 -20h-717l-237 -1352h-93z" />
<glyph unicode="&#x414;" horiz-adv-x="1382" d="M-156 -307l68 389h51q53 31 103 74q43 37 81.5 87t57.5 115l313 1076h778l-237 -1352h174l-70 -389h-71l34 307h-1136l-76 -307h-70zM76 82h891l223 1270h-604l-289 -994q-18 -66 -55 -114.5t-74 -83.5q-43 -39 -92 -68v-10z" />
<glyph unicode="&#x415;" horiz-adv-x="1167" d="M102 0l252 1434h901l-10 -62l-24 -20h-789l-100 -574h614l-16 -82h-615l-106 -614h809l-14 -82h-902z" />
<glyph unicode="&#x416;" horiz-adv-x="1955" d="M-41 0l6 41l553 696l-295 656l8 41h93l284 -656h359l114 656h93l-115 -656h358l514 656h92l-8 -41l-524 -656l307 -696l-6 -41h-92l-299 696h-359l-120 -696h-93l121 696h-358l-541 -696h-92z" />
<glyph unicode="&#x417;" horiz-adv-x="1095" d="M-51 0l14 82h563q123 0 206 71.5t106 194.5l16 92q23 123 -36.5 195t-182.5 72h-307l14 81h287q123 0 207 72t106 195l6 30q23 123 -36.5 195t-182.5 72h-502l-16 20l10 62h522q170 0 248 -93.5t49 -255.5l-6 -30q-16 -92 -58 -149.5t-85 -90.5q-53 -39 -113 -57l-2 -10 q59 -16 103 -54q39 -35 62.5 -94t4.5 -160l-16 -92q-12 -76 -49 -140.5t-92.5 -110.5t-126 -71.5t-150.5 -25.5h-563z" />
<glyph unicode="&#x418;" horiz-adv-x="1392" d="M102 0l252 1434h92l-180 -1024l-55 -256h10l1014 1280h102l-252 -1434h-92l181 1024l55 256h-10l-1014 -1280h-103z" />
<glyph unicode="&#x419;" horiz-adv-x="1392" d="M102 0l252 1434h92l-180 -1024l-55 -256h10l1014 1280h102l-252 -1434h-92l181 1024l55 256h-10l-1014 -1280h-103zM619 1833l10 62h82l-10 -62q-25 -133 98 -133h185q123 0 147 133l10 62h82l-10 -62q-16 -92 -83 -148.5t-159 -56.5h-184q-92 0 -138 56.5t-30 148.5z " />
<glyph unicode="&#x41a;" horiz-adv-x="1249" d="M102 0l252 1434h92l-114 -656h389l504 656h92l-8 -41l-514 -656l297 -696l-7 -41h-92l-288 696h-390l-120 -696h-93z" />
<glyph unicode="&#x41b;" horiz-adv-x="1402" d="M-104 -20l12 81h72q78 0 151.5 68t110.5 199l317 1106h789l-252 -1434h-92l237 1352h-614l-293 -1024q-49 -170 -147.5 -259t-221.5 -89h-69z" />
<glyph unicode="&#x41c;" horiz-adv-x="1812" d="M20 0l7 41l430 1393h123l274 -1117h10l668 1117h123l-62 -1393l-6 -41h-92l64 1290h-11l-653 -1085h-113l-268 1085h-10l-391 -1290h-93z" />
<glyph unicode="&#x41d;" horiz-adv-x="1392" d="M102 0l252 1434h92l-114 -656h798l115 656h92l-252 -1434h-92l121 696h-799l-120 -696h-93z" />
<glyph unicode="&#x41e;" horiz-adv-x="1372" d="M118.5 187.5q-14.5 64.5 0.5 140.5l137 778q12 78 50 141.5t93.5 109.5t126 71.5t150.5 25.5h328q80 0 141 -25.5t100 -71.5t53 -109.5t2 -141.5l-137 -778q-14 -76 -51 -140.5t-92 -110.5t-126 -71.5t-151 -25.5h-327q-80 0 -142.5 25.5t-101.5 71.5t-53.5 110.5z M211 328q-23 -123 36.5 -195t182.5 -72h328q123 0 207 72t106 195l137 778q23 123 -36.5 194.5t-182.5 71.5h-327q-123 0 -207 -71.5t-107 -194.5z" />
<glyph unicode="&#x41f;" horiz-adv-x="1392" d="M102 0l252 1434h983l-252 -1434h-92l238 1352h-799l-237 -1352h-93z" />
<glyph unicode="&#x420;" horiz-adv-x="1290" d="M102 0l252 1434h604q80 0 142.5 -26t101.5 -72t53.5 -109.5t-0.5 -141.5l-38 -225q-14 -76 -51.5 -140.5t-92.5 -110.5t-125.5 -71.5t-150.5 -25.5h-512l-90 -512h-93zM299 594h512q123 0 207 71.5t106 194.5l39 225q23 123 -36.5 195t-182.5 72h-512z" />
<glyph unicode="&#x421;" d="M121 348l131 737q14 78 51 141.5t92.5 109.5t126 72t150.5 26h563l-10 -62l-25 -20h-543q-123 0 -206.5 -72t-106.5 -195l-131 -737q-23 -123 37.5 -194.5t183.5 -71.5h563l-14 -82h-563q-80 0 -142.5 25.5t-101.5 71.5t-53 110.5t-2 140.5z" />
<glyph unicode="&#x422;" horiz-adv-x="1075" d="M156 1352l14 82h1034l-10 -62l-25 -20h-450l-238 -1352h-92l238 1352h-471z" />
<glyph unicode="&#x423;" horiz-adv-x="1126" d="M78 -20l14 81h82q78 0 160 69t139 177l-291 1086l8 41h93l260 -1024h10l590 1024h92l-8 -41l-641 -1086q-100 -170 -197.5 -248.5t-228.5 -78.5h-82z" />
<glyph unicode="&#x424;" horiz-adv-x="1853" d="M123 330.5q-14 64.5 0 140.5l86 492q14 78 51 141t92.5 109.5t126 72t150.5 25.5h379l36 205h93l-37 -205h379q80 0 142 -25.5t101 -72t53.5 -110t0.5 -140.5l-86 -492q-14 -76 -51 -140.5t-92.5 -110.5t-126 -71.5t-150.5 -25.5h-379l-33 -184h-92l33 184h-379 q-80 0 -142.5 25.5t-101.5 71.5t-53 110.5zM215 471q-23 -123 36.5 -194.5t182.5 -71.5h379l180 1024h-379q-123 0 -206.5 -72t-106.5 -194zM905 205h379q123 0 207 71.5t106 194.5l86 492q23 123 -36.5 194.5t-182.5 71.5h-379z" />
<glyph unicode="&#x425;" horiz-adv-x="1177" d="M-61 0l6 41l604 696l-326 656l8 41h93l299 -625h10l520 625h92l-8 -41l-555 -656l358 -696l-6 -41h-92l-334 666h-10l-567 -666h-92z" />
<glyph unicode="&#x426;" horiz-adv-x="1392" d="M102 0l252 1434h92l-237 -1352h778l238 1352h92l-238 -1352h164l-69 -389h-72l35 307h-1035z" />
<glyph unicode="&#x427;" horiz-adv-x="1310" d="M219 760.5q-14 64.5 0 140.5l94 533h93l-95 -533q-23 -123 37 -194.5t182 -71.5h492l141 799h92l-251 -1434h-93l97 553h-492q-80 0 -142.5 25.5t-101.5 71.5t-53 110.5z" />
<glyph unicode="&#x428;" horiz-adv-x="2037" d="M102 0l252 1434h92l-237 -1352h676l237 1352h92l-237 -1352h676l237 1352h92l-251 -1434h-1629z" />
<glyph unicode="&#x429;" horiz-adv-x="2058" d="M102 0l252 1434h92l-237 -1352h676l237 1352h92l-237 -1352h676l237 1352h92l-237 -1352h164l-70 -389h-72l35 307h-1700z" />
<glyph unicode="&#x42a;" horiz-adv-x="1413" d="M135 1352l15 82h440l-98 -553h491q80 0 142.5 -26t101.5 -72t53 -109.5t0 -141.5l-33 -184q-12 -76 -49 -140.5t-92 -110.5t-126 -71.5t-151 -25.5h-583l237 1352h-348zM352 82h492q123 0 206 71.5t105 194.5l33 184q23 123 -36.5 195t-182.5 72h-492z" />
<glyph unicode="&#x42b;" horiz-adv-x="1781" d="M102 0l252 1434h92l-98 -553h492q80 0 142 -26t101 -72t53.5 -109.5t0.5 -141.5l-33 -184q-12 -76 -49 -140.5t-92.5 -110.5t-126 -71.5t-150.5 -25.5h-584zM209 82h491q123 0 206 71.5t106 194.5l32 184q23 123 -36.5 195t-182.5 72h-491zM1382 0l252 1434h92 l-251 -1434h-93z" />
<glyph unicode="&#x42c;" horiz-adv-x="1290" d="M102 0l252 1434h92l-98 -553h512q80 0 142.5 -26t101.5 -72t53 -109.5t0 -141.5l-33 -184q-12 -76 -49 -140.5t-92 -110.5t-126 -71.5t-150 -25.5h-605zM209 82h512q123 0 206 71.5t105 194.5l33 184q23 123 -36.5 195t-182.5 72h-512z" />
<glyph unicode="&#x42d;" d="M-31 0l15 82h563q123 0 206 71.5t105 194.5l62 338h-564l15 82h563l55 317q23 123 -36.5 195t-182.5 72h-543l-16 20l10 62h563q80 0 142.5 -26t101.5 -72t53.5 -109.5t-0.5 -141.5l-131 -737q-12 -76 -49 -140.5t-92 -110.5t-126 -71.5t-151 -25.5h-563z" />
<glyph unicode="&#x42e;" horiz-adv-x="1863" d="M102 0l252 1434h92l-116 -666h409l60 338q12 78 50 141.5t93 109.5t126 71.5t151 25.5h276q80 0 141.5 -25.5t100.5 -71.5t53 -109.5t2 -141.5l-137 -778q-14 -76 -51 -140.5t-92.5 -110.5t-126 -71.5t-150.5 -25.5h-277q-80 0 -142 25.5t-101 71.5t-53.5 110.5 t0.5 140.5l63 358h-410l-120 -686h-93zM754 328q-23 -123 36.5 -195t182.5 -72h276q123 0 207 72t107 195l137 778q23 123 -36.5 194.5t-182.5 71.5h-277q-123 0 -206.5 -71.5t-106.5 -194.5z" />
<glyph unicode="&#x42f;" horiz-adv-x="1310" d="M0 0l6 41l434 543q-82 10 -139 49q-37 20 -55.5 43.5t-31.5 58.5t-17 81t6 106l28 163q14 78 51 141.5t92.5 109.5t126 72t150.5 26h604l-251 -1434h-93l101 573h-471l-449 -573h-92zM295 922q-23 -123 36.5 -195t182.5 -72h512l123 697h-512q-123 0 -207 -72t-106 -195z " />
<glyph unicode="&#x430;" horiz-adv-x="1085" d="M25 266l10 51q10 61 42 113.5t78 91.5t104 60.5t124 21.5h451l26 154q16 92 -31 148.5t-139 56.5h-450l14 81h451q66 0 116.5 -21.5t83.5 -60t45.5 -91t1.5 -113.5l-133 -758h-61l6 154h-10q-31 -49 -74 -86q-39 -37 -91 -62.5t-122 -25.5h-195q-66 0 -117 21.5t-83.5 60 t-45 91t-1.5 113.5zM117 266q-16 -92 31 -148.5t139 -56.5h194q70 0 124 35t93 78q45 49 78 113l41 235h-450q-92 0 -158 -56t-82 -149z" />
<glyph unicode="&#x431;" horiz-adv-x="1146" d="M106 266l134 748q12 74 47 134t83 106t107.5 77t122.5 41l539 92l-4 -82l-529 -92q-96 -16 -175 -87.5t-99 -188.5l-21 -113h451q66 0 117 -21.5t82.5 -60.5t45 -91t1.5 -114l-62 -348q-10 -61 -41 -113.5t-77 -91t-104 -60t-124 -21.5h-246q-66 0 -117 21.5t-83.5 60 t-45 91t-2.5 113.5zM199 266q-16 -92 30.5 -148.5t139.5 -56.5h245q92 0 158 56.5t82 148.5l61 348q16 92 -29.5 148.5t-137.5 56.5h-451z" />
<glyph unicode="&#x432;" horiz-adv-x="1085" d="M61 0l183 1044h491q131 0 196.5 -76.5t43.5 -199.5q-12 -70 -43 -113t-62 -69q-36 -29 -79 -43l-3 -11q49 -14 84 -45q33 -27 52.5 -71.5t7.5 -118.5l-4 -21q-23 -123 -113 -199.5t-221 -76.5h-533zM168 82h440q86 0 150 54t78 140l4 21q16 86 -29 140.5t-131 54.5h-440z M254 573h399q86 0 150 54.5t80 140.5q14 86 -31 140.5t-131 54.5h-399z" />
<glyph unicode="&#x433;" horiz-adv-x="870" d="M61 0l183 1044h706l-10 -61l-25 -20h-593l-168 -963h-93z" />
<glyph unicode="&#x434;" d="M-147 -266l59 348h51q43 20 84 53q35 29 69 73t52 109l209 727h645l-168 -962h154l-62 -348h-72l27 266h-911l-68 -266h-69zM76 82h686l153 881h-471l-184 -646q-18 -66 -49 -108.5t-61 -69.5q-35 -31 -74 -47v-10z" />
<glyph unicode="&#x435;" horiz-adv-x="1116" d="M90 287l88 491q10 61 41 113.5t77 91.5t104.5 60.5t123.5 21.5h236q66 0 117 -21.5t83.5 -60.5t45 -91.5t2.5 -113.5l-56 -307h-737l-33 -184q-16 -92 31 -148.5t139 -56.5h502l-14 -82h-502q-66 0 -117 21.5t-84 60.5t-45 91t-2 114zM229 553h645l41 225 q16 92 -30.5 148.5t-139.5 56.5h-235q-92 0 -158 -56.5t-82 -148.5z" />
<glyph unicode="&#x436;" horiz-adv-x="1587" d="M-41 0l6 41l406 502l-205 461l6 40h92l197 -460h287l79 460h93l-80 -460h286l357 460h92l-6 -40l-369 -461l230 -502l-7 -41h-92l-219 502h-287l-88 -502h-92l88 502h-287l-395 -502h-92z" />
<glyph unicode="&#x437;" horiz-adv-x="942" d="M-61 0l14 82h491q86 0 149.5 54t78.5 140l4 21q16 86 -29 140.5t-131 54.5h-266l14 81h246q86 0 149.5 54.5t79.5 140.5q14 86 -30.5 140.5t-130.5 54.5h-431l-16 20l10 61h451q131 0 196.5 -76.5t42.5 -199.5q-12 -70 -43.5 -113t-64.5 -69q-41 -29 -86 -43l-2 -11 q47 -14 80 -45q31 -27 48 -71.5t5 -118.5l-4 -21q-23 -123 -113 -199.5t-221 -76.5h-491z" />
<glyph unicode="&#x438;" horiz-adv-x="1146" d="M61 0l183 1044h92l-115 -655l-53 -246h10l793 901h92l-182 -1044h-93l115 655l53 246h-10l-792 -901h-93z" />
<glyph unicode="&#x439;" horiz-adv-x="1146" d="M61 0l183 1044h92l-115 -655l-53 -246h10l793 901h92l-182 -1044h-93l115 655l53 246h-10l-792 -901h-93zM456 1434l9 51h82l-9 -51q-25 -133 99 -134h123q123 0 147 134l8 51h82l-8 -51q-16 -92 -83 -148.5t-159 -56.5h-123q-92 0 -138 56t-30 149z" />
<glyph unicode="&#x43a;" horiz-adv-x="1044" d="M61 0l183 1044h92l-80 -460h328l356 460h92l-6 -40l-369 -461l230 -502l-6 -41h-93l-219 502h-327l-88 -502h-93z" />
<glyph unicode="&#x43b;" d="M-104 -20l12 81h61q70 0 136.5 58.5t97.5 167.5l215 757h655l-182 -1044h-92l168 963h-482l-190 -676q-41 -147 -132 -227t-208 -80h-59z" />
<glyph unicode="&#x43c;" horiz-adv-x="1464" d="M10 0l6 41l330 1003h113l211 -788h10l485 788h113l-23 -1003l-6 -41h-92l25 901h-11l-471 -758h-92l-205 758h-10l-291 -901h-92z" />
<glyph unicode="&#x43d;" d="M61 0l183 1044h92l-84 -481h645l84 481h92l-182 -1044h-92l84 481h-645l-84 -481h-93z" />
<glyph unicode="&#x43e;" horiz-adv-x="1146" d="M86 266l92 512q10 61 41 113.5t77 91.5t104.5 60.5t123.5 21.5h267q66 0 116.5 -21.5t83.5 -60.5t45 -91.5t2 -113.5l-92 -512q-10 -61 -41 -113.5t-77 -91t-104 -60t-124 -21.5h-266q-66 0 -117 21.5t-84 60t-45 91t-2 113.5zM178 266q-16 -92 31 -148.5t139 -56.5h266 q92 0 158 56.5t82 148.5l92 512q16 92 -31 148.5t-139 56.5h-266q-92 0 -157.5 -56.5t-82.5 -148.5z" />
<glyph unicode="&#x43f;" d="M61 0l183 1044h829l-182 -1044h-92l168 963h-645l-168 -963h-93z" />
<glyph unicode="&#x440;" d="M0 -348l244 1392h61l-6 -153h10q31 49 74 88q39 35 91 60.5t122 25.5h205q66 0 117 -21.5t83.5 -60.5t45 -91t2.5 -114l-88 -491q-10 -61 -41 -113.5t-77 -91.5t-104.5 -60.5t-124.5 -21.5h-460l-62 -348h-92zM168 82h461q92 0 157.5 56.5t81.5 148.5l88 491 q16 92 -31 148.5t-139 56.5h-204q-70 0 -124.5 -35t-92.5 -78q-45 -49 -78 -112z" />
<glyph unicode="&#x441;" horiz-adv-x="962" d="M90 287l84 471q10 61 41 113.5t77 91t104.5 60t123.5 21.5h471l-10 -61l-25 -20h-450q-92 0 -157.5 -56.5t-82.5 -148.5l-84 -471q-16 -92 31 -148.5t139 -56.5h471l-14 -82h-471q-66 0 -117 21.5t-84 60.5t-45 91t-2 114z" />
<glyph unicode="&#x442;" horiz-adv-x="890" d="M86 963l14 81h850l-10 -61l-25 -20h-358l-168 -963h-92l168 963h-379z" />
<glyph unicode="&#x443;" horiz-adv-x="983" d="M-10 -348l14 82h51q86 0 167 69.5t134 186.5l-241 1014l6 40h92l203 -942h10l504 942h92l-6 -40l-567 -1014q-51 -92 -99.5 -156.5t-95.5 -104.5t-99.5 -58.5t-113.5 -18.5h-51z" />
<glyph unicode="&#x444;" horiz-adv-x="1544" d="M90 287l84 471q10 61 41 113.5t77 91t104.5 60t123.5 21.5h285l69 390h93l-70 -390h287q66 0 117 -21.5t83.5 -60t45 -91t2.5 -113.5l-84 -471q-10 -61 -41 -113.5t-77 -91.5t-104.5 -60.5t-124.5 -21.5h-286l-62 -348h-92l62 348h-285q-66 0 -117 21.5t-84 60.5t-45 91 t-2 114zM182 287q-16 -92 31 -148.5t139 -56.5h285l154 881h-285q-92 0 -157.5 -56.5t-82.5 -148.5zM729 82h287q92 0 157.5 56.5t81.5 148.5l84 471q16 92 -30.5 148.5t-139.5 56.5h-286z" />
<glyph unicode="&#x445;" horiz-adv-x="972" d="M-51 0l6 39l457 504l-256 461l6 40h82l241 -440h11l393 440h82l-6 -40l-420 -461l280 -504l-6 -39h-92l-254 481h-10l-422 -481h-92z" />
<glyph unicode="&#x446;" horiz-adv-x="1177" d="M61 0l183 1044h92l-168 -962h625l168 962h92l-168 -962h143l-61 -348h-72l27 266h-861z" />
<glyph unicode="&#x447;" horiz-adv-x="1075" d="M139 676l64 368h92l-64 -368q-16 -92 30 -148.5t138 -56.5h400l100 573h92l-182 -1044h-92l67 389h-399q-66 0 -116 21.5t-82.5 60.5t-45 91t-2.5 114z" />
<glyph unicode="&#x448;" horiz-adv-x="1648" d="M61 0l183 1044h92l-168 -962h522l168 962h92l-168 -962h523l168 962h92l-183 -1044h-1321z" />
<glyph unicode="&#x449;" horiz-adv-x="1699" d="M61 0l183 1044h92l-168 -962h522l168 962h92l-168 -962h523l168 962h92l-168 -962h153l-61 -348h-72l27 266h-1383z" />
<glyph unicode="&#x44a;" horiz-adv-x="1146" d="M66 963l14 81h369l-66 -378h379q66 0 116 -21.5t82.5 -60.5t45 -91.5t2.5 -113.5l-17 -92q-10 -61 -40.5 -113.5t-77 -91.5t-104.5 -60.5t-124 -21.5h-471l168 963h-276zM281 82h378q92 0 158 56.5t82 148.5l16 92q16 92 -29.5 148.5t-137.5 56.5h-379z" />
<glyph unicode="&#x44b;" horiz-adv-x="1423" d="M61 0l183 1044h92l-66 -378h379q66 0 116 -21.5t83 -60.5t45 -91.5t2 -113.5l-16 -92q-10 -61 -41 -113.5t-77 -91.5t-104.5 -60.5t-124.5 -21.5h-471zM168 82h379q92 0 157.5 56.5t81.5 148.5l17 92q16 92 -30 148.5t-138 56.5h-379zM1065 0l182 1044h92l-182 -1044h-92 z" />
<glyph unicode="&#x44c;" horiz-adv-x="1054" d="M61 0l183 1044h92l-66 -378h400q66 0 116 -21.5t82.5 -60.5t45 -91.5t1.5 -113.5l-16 -92q-10 -61 -41 -113.5t-77 -91.5t-104.5 -60.5t-123.5 -21.5h-492zM168 82h399q92 0 158 56.5t82 148.5l16 92q16 92 -29.5 148.5t-138.5 56.5h-399z" />
<glyph unicode="&#x44d;" horiz-adv-x="962" d="M-51 0l14 82h471q92 0 157.5 56.5t82.5 148.5l37 205h-441l15 81h440l33 185q16 92 -31 148.5t-139 56.5h-451l-16 20l10 61h471q66 0 117 -21.5t84 -60t45 -91t2 -113.5l-84 -471q-10 -61 -41 -113.5t-77 -91.5t-104.5 -60.5t-123.5 -21.5h-471z" />
<glyph unicode="&#x44e;" horiz-adv-x="1515" d="M61 0l183 1044h92l-84 -481h307l39 215q10 61 41 113.5t77 91.5t104.5 60.5t123.5 21.5h215q66 0 117 -21.5t84 -60.5t45 -91.5t2 -113.5l-92 -512q-10 -61 -41 -113.5t-77 -91t-104.5 -60t-123.5 -21.5h-215q-66 0 -117 21.5t-84 60t-45 91t-2 113.5l39 215h-307 l-84 -481h-93zM598 266q-16 -92 31 -148.5t139 -56.5h215q92 0 157.5 56.5t82.5 148.5l92 512q16 92 -31 148.5t-139 56.5h-215q-92 0 -157.5 -56.5t-82.5 -148.5z" />
<glyph unicode="&#x44f;" horiz-adv-x="1075" d="M0 0l6 41l301 369q-57 18 -98 53q-39 33 -61.5 85t-6.5 138l13 72q10 61 40.5 113.5t76.5 91t104.5 60t124.5 21.5h491l-182 -1044h-92l69 399h-389l-305 -399h-92zM233 686q-16 -92 30 -148.5t138 -56.5h400l84 482h-400q-92 0 -157.5 -56.5t-81.5 -148.5z" />
<glyph unicode="&#x451;" horiz-adv-x="1116" d="M90 287l88 491q10 61 41 113.5t77 91.5t104.5 60.5t123.5 21.5h236q66 0 117 -21.5t83.5 -60.5t45 -91.5t2.5 -113.5l-56 -307h-737l-33 -184q-16 -92 31 -148.5t139 -56.5h502l-14 -82h-502q-66 0 -117 21.5t-84 60.5t-45 91t-2 114zM229 553h645l41 225 q16 92 -30.5 148.5t-139.5 56.5h-235q-92 0 -158 -56.5t-82 -148.5zM445 1259l32 185h93l-33 -185h-92zM813 1259l33 185h92l-33 -185h-92z" />
<glyph unicode="&#x452;" horiz-adv-x="1198" d="M113 0l188 1075h-174l14 82h174l95 297h51l-53 -297h337l-14 -82h-338l-37 -215h461q66 0 116 -21.5t83 -60.5t45 -91t2 -114l-55 -307q-10 -61 -41 -113.5t-77 -91t-104.5 -60t-123.5 -21.5h-82l14 81h82q92 0 157.5 56.5t81.5 148.5l56 307q16 92 -30 148.5t-138 56.5 h-461l-137 -778h-92z" />
<glyph unicode="&#x453;" horiz-adv-x="870" d="M61 0l183 1044h706l-10 -61l-25 -20h-593l-168 -963h-93zM579 1208l219 307h103l-250 -307h-72z" />
<glyph unicode="&#x454;" horiz-adv-x="962" d="M90 287l84 471q10 61 41 113.5t77 91t104.5 60t123.5 21.5h471l-10 -61l-25 -20h-450q-92 0 -157.5 -56.5t-82.5 -148.5l-33 -185h441l-15 -81h-440l-37 -205q-16 -92 31 -148.5t139 -56.5h471l-14 -82h-471q-66 0 -117 21.5t-84 60.5t-45 91t-2 114z" />
<glyph unicode="&#x455;" horiz-adv-x="962" d="M-20 0l14 82h512q92 0 151.5 51t75.5 143q12 70 -21.5 114t-101.5 61l-305 71q-111 27 -156 82t-24 164q23 123 113 199.5t221 76.5h481l-10 -61l-25 -20h-461q-92 0 -151.5 -51.5t-75.5 -143.5q-12 -70 18.5 -108.5t106.5 -55.5l303 -72q111 -27 157 -83t23 -173 q-23 -123 -112.5 -199.5t-220.5 -76.5h-512z" />
<glyph unicode="&#x456;" horiz-adv-x="419" d="M61 0l183 1044h92l-182 -1044h-93zM272 1198l41 236h93l-41 -236h-93z" />
<glyph unicode="&#x457;" horiz-adv-x="460" d="M81 0l183 1044h92l-182 -1044h-93zM119 1259l32 185h93l-33 -185h-92zM487 1259l33 185h92l-33 -185h-92z" />
<glyph unicode="&#x458;" horiz-adv-x="460" d="M-244 -348l15 82h82q92 0 156.5 56t80.5 149l195 1105h92l-195 -1105q-10 -61 -40.5 -113.5t-77 -91.5t-104.5 -60.5t-122 -21.5h-82zM313 1198l41 236h92l-40 -236h-93z" />
<glyph unicode="&#x459;" horiz-adv-x="1710" d="M-104 -20l12 81h61q70 0 135.5 58.5t98.5 167.5l225 757h614l-65 -378h369q66 0 115.5 -21.5t82.5 -60.5t45.5 -91.5t1.5 -113.5l-16 -92q-10 -61 -41 -113.5t-77 -91.5t-104.5 -60.5t-123.5 -21.5h-461l168 963h-451l-190 -676q-41 -147 -132 -227t-208 -80h-59zM874 82 h369q92 0 157.5 56.5t82.5 148.5l16 92q16 92 -30 148.5t-138 56.5h-368z" />
<glyph unicode="&#x45a;" horiz-adv-x="1710" d="M61 0l183 1044h92l-74 -419h594l74 419h92l-74 -419h389q66 0 117 -21.5t84 -60.5t45 -91.5t2 -113.5l-10 -51q-10 -61 -41 -113.5t-77 -91.5t-104.5 -60.5t-123.5 -21.5h-481l94 543h-594l-94 -543h-93zM854 82h389q92 0 157.5 56.5t82.5 148.5l10 51q16 92 -31 148.5 t-139 56.5h-389z" />
<glyph unicode="&#x45b;" horiz-adv-x="1228" d="M113 0l188 1075h-174l14 82h174l95 297h51l-53 -297h337l-14 -82h-338l-37 -215h461q66 0 116 -21.5t83 -60.5t45 -91t2 -114l-100 -573h-93l101 573q16 92 -30 148.5t-138 56.5h-461l-137 -778h-92z" />
<glyph unicode="&#x45c;" horiz-adv-x="1044" d="M61 0l183 1044h92l-80 -460h328l356 460h92l-6 -40l-369 -461l230 -502l-6 -41h-93l-219 502h-327l-88 -502h-93zM600 1208l219 307h103l-250 -307h-72z" />
<glyph unicode="&#x45e;" horiz-adv-x="983" d="M-10 -348l14 82h51q86 0 167 69.5t134 186.5l-241 1014l6 40h92l203 -942h10l504 942h92l-6 -40l-567 -1014q-51 -92 -99.5 -156.5t-95.5 -104.5t-99.5 -58.5t-113.5 -18.5h-51zM374 1434l9 51h82l-9 -51q-25 -133 99 -134h123q123 0 147 134l8 51h82l-8 -51 q-16 -92 -83 -148.5t-159 -56.5h-123q-92 0 -138 56t-30 149z" />
<glyph unicode="&#x45f;" d="M61 0l183 1044h92l-168 -962h645l168 962h92l-182 -1044h-359l-67 -266h-72l27 266h-359z" />
<glyph unicode="&#x490;" horiz-adv-x="1034" d="M102 0l252 1434h748l57 215h62l-52 -297h-737l-237 -1352h-93z" />
<glyph unicode="&#x491;" horiz-adv-x="870" d="M61 0l183 1044h624l60 216h61l-53 -297h-614l-168 -963h-93z" />
<glyph unicode="&#x2000;" horiz-adv-x="947" />
<glyph unicode="&#x2001;" horiz-adv-x="1895" />
<glyph unicode="&#x2002;" horiz-adv-x="947" />
<glyph unicode="&#x2003;" horiz-adv-x="1895" />
<glyph unicode="&#x2004;" horiz-adv-x="631" />
<glyph unicode="&#x2005;" horiz-adv-x="473" />
<glyph unicode="&#x2006;" horiz-adv-x="315" />
<glyph unicode="&#x2007;" horiz-adv-x="315" />
<glyph unicode="&#x2008;" horiz-adv-x="236" />
<glyph unicode="&#x2009;" horiz-adv-x="379" />
<glyph unicode="&#x200a;" horiz-adv-x="105" />
<glyph unicode="&#x2010;" horiz-adv-x="931" d="M78 625l14 82h789l-15 -82h-788z" />
<glyph unicode="&#x2011;" horiz-adv-x="931" d="M78 625l14 82h789l-15 -82h-788z" />
<glyph unicode="&#x2012;" horiz-adv-x="931" d="M78 625l14 82h789l-15 -82h-788z" />
<glyph unicode="&#x2013;" horiz-adv-x="1116" d="M82 584l14 82h953l-15 -82h-952z" />
<glyph unicode="&#x2014;" horiz-adv-x="1679" d="M82 584l14 82h1516l-15 -82h-1515z" />
<glyph unicode="&#x2018;" horiz-adv-x="337" d="M207 1065l18 102l99 267h41l-66 -369h-92z" />
<glyph unicode="&#x2019;" horiz-adv-x="337" d="M207 1065l65 369h93l-19 -103l-98 -266h-41z" />
<glyph unicode="&#x201a;" horiz-adv-x="337" d="M-16 -205l65 369h92l-18 -103l-98 -266h-41z" />
<glyph unicode="&#x201c;" horiz-adv-x="624" d="M207 1065l18 102l99 267h41l-66 -369h-92zM494 1065l18 102l98 267h41l-65 -369h-92z" />
<glyph unicode="&#x201d;" horiz-adv-x="624" d="M207 1065l65 369h93l-19 -103l-98 -266h-41zM494 1065l65 369h92l-18 -103l-98 -266h-41z" />
<glyph unicode="&#x201e;" horiz-adv-x="624" d="M-16 -205l65 369h92l-18 -103l-98 -266h-41zM270 -205l66 369h92l-18 -103l-99 -266h-41z" />
<glyph unicode="&#x2026;" horiz-adv-x="1218" d="M20 0l29 164h92l-28 -164h-93zM461 0l28 164h93l-29 -164h-92zM901 0l29 164h92l-29 -164h-92z" />
<glyph unicode="&#x202f;" horiz-adv-x="379" />
<glyph unicode="&#x2039;" horiz-adv-x="624" d="M92 532l393 431h82l-6 -41l-366 -390l229 -389l-8 -41h-82z" />
<glyph unicode="&#x203a;" horiz-adv-x="624" d="M37 102l8 41l365 389l-228 390l6 41h82l242 -431l-393 -430h-82z" />
<glyph unicode="&#x205f;" horiz-adv-x="473" />
<glyph unicode="&#x20ac;" horiz-adv-x="1228" d="M47 502l12 71h174l52 287h-174l12 72h174l27 153q14 78 51 141.5t92 109.5t126 72t150 26h564l-11 -62l-24 -20h-543q-123 0 -207 -72t-106 -195l-27 -153h594l-12 -72h-594l-51 -287h594l-13 -71h-594l-28 -154q-23 -123 37.5 -194.5t183.5 -71.5h563l-14 -82h-563 q-80 0 -142.5 25.5t-101.5 71.5t-53.5 110.5t-1.5 140.5l28 154h-174z" />
<glyph unicode="&#x2122;" horiz-adv-x="1525" d="M158 1362l12 72h573l-8 -52l-24 -20h-226l-100 -563h-82l100 563h-245zM672 799l6 30l199 605h102l117 -441h10l272 441h103l-15 -605l-6 -30h-82l21 522h-10l-273 -440h-72l-116 440h-10l-164 -522h-82z" />
<glyph unicode="&#x25fc;" horiz-adv-x="1044" d="M0 0v1044h1044v-1044h-1044z" />
</font>
</defs>
</svg>
