<?xml version="1.0" standalone="no"?>
<!DOCTYPE svg PUBLIC "-//W3C//DTD SVG 1.1//EN" "http://www.w3.org/Graphics/SVG/1.1/DTD/svg11.dtd" >
<svg xmlns="http://www.w3.org/2000/svg" xmlns:xlink="http://www.w3.org/1999/xlink" version="1.1">
<metadata></metadata>
<defs>
<font id="ttsupermolot-bolduploadedfile" horiz-adv-x="1177" >
<font-face units-per-em="2048" ascent="1645" descent="-403" />
<missing-glyph horiz-adv-x="512" />
<glyph horiz-adv-x="0" />
<glyph unicode="&#xd;" horiz-adv-x="0" />
<glyph horiz-adv-x="0" />
<glyph unicode=" "  horiz-adv-x="512" />
<glyph unicode="&#x09;" horiz-adv-x="512" />
<glyph unicode="&#xa0;" horiz-adv-x="512" />
<glyph unicode="!" horiz-adv-x="522" d="M123 973v461h276v-461l-51 -512h-174zM143 0v256h236v-256h-236z" />
<glyph unicode="&#x22;" horiz-adv-x="727" d="M82 1229v205h205v-205l-41 -246h-123zM440 1229v205h205v-205l-41 -246h-123z" />
<glyph unicode="#" horiz-adv-x="1441" d="M41 328v204h256l102 369h-235v205h297l92 328h235l-92 -328h275l92 328h235l-92 -328h195v-205h-256l-103 -369h236v-204h-297l-92 -328h-236l92 328h-274l-92 -328h-236l93 328h-195zM532 532h275l102 369h-274z" />
<glyph unicode="$" d="M72 0v225h604q78 0 121 41t43 103v71q0 61 -21.5 93t-60.5 40l-420 93q-109 23 -182.5 104.5t-73.5 212.5v143q0 61 25.5 116.5t71.5 98.5t110.5 68t140.5 25h39v204h246v-204h350v-154l-72 -72h-481q-78 0 -121 -41t-43 -102v-51q0 -61 21.5 -88t60.5 -35l420 -92 q109 -23 182.5 -106t73.5 -222v-164q0 -61 -25.5 -116.5t-71.5 -98.5t-109.5 -67.5t-141.5 -24.5h-43v-205h-246v205h-397z" />
<glyph unicode="%" horiz-adv-x="1679" d="M82 983v246q0 92 71.5 158.5t194.5 66.5h103q123 0 194.5 -66.5t71.5 -158.5v-246q0 -92 -72 -158.5t-194 -66.5h-103q-123 0 -194.5 66.5t-71.5 158.5zM276 1004q0 -82 93 -82h61q92 0 92 82v204q0 82 -92 82h-61q-92 0 -93 -82v-204zM338 0v113l809 1321h194v-113 l-809 -1321h-194zM963 205v246q0 92 71.5 158.5t194.5 66.5h102q123 0 194.5 -66.5t71.5 -158.5v-246q0 -92 -71.5 -158.5t-194.5 -66.5h-102q-123 0 -194.5 66.5t-71.5 158.5zM1157 225q0 -82 92 -82h62q92 0 92 82v205q0 82 -92 82h-62q-92 0 -92 -82v-205z" />
<glyph unicode="&#x26;" horiz-adv-x="1320" d="M72 297v143q0 70 23.5 128.5t63.5 100.5t94 65.5t116 23.5v20q-41 39 -72 80q-29 39 -50.5 81t-21.5 85v92q0 70 23.5 128.5t68.5 100t107.5 65.5t138.5 24h512v-154l-71 -72h-369q-61 0 -102 -40t-41 -93v-51q0 -39 20 -65.5t51 -57.5l758 -788v-113h-266l-113 123h-20 q-27 -41 -66 -72q-37 -29 -90 -50t-131 -21h-225q-76 0 -138.5 23.5t-107.5 65.5t-68.5 100t-23.5 128zM338 338q0 -53 41 -93t102 -40h154q47 0 73.5 17.5t43.5 37.5q16 23 22 53l-252 281h-41q-61 0 -102 -40t-41 -93v-123z" />
<glyph unicode="'" horiz-adv-x="368" d="M82 1229v205h205v-205l-41 -246h-123z" />
<glyph unicode="(" horiz-adv-x="686" d="M143 -72v1352q0 70 23.5 128t69 100t108 65.5t137.5 23.5h185v-225h-113q-61 0 -102 -40t-41 -93v-1270q0 -53 41 -93t102 -40h113v-225h-185q-76 0 -138 23.5t-107.5 65.5t-69 100.5t-23.5 127.5z" />
<glyph unicode=")" horiz-adv-x="686" d="M20 -164h113q61 0 102 40t41 93v1270q0 53 -40.5 93t-102.5 40h-113v225h185q78 0 139.5 -23.5t106.5 -65.5t68.5 -100t23.5 -128v-1352q0 -70 -23.5 -128t-68.5 -100t-106.5 -65.5t-139.5 -23.5h-185v225z" />
<glyph unicode="*" horiz-adv-x="798" d="M41 1106l31 123l245 -51l21 256h123l20 -256l246 51l31 -123l-236 -82l144 -215l-103 -72l-164 195l-163 -195l-103 72l143 215z" />
<glyph unicode="+" horiz-adv-x="1013" d="M61 553v215h338v348h215v-348h338v-215h-338v-348h-215v348h-338z" />
<glyph unicode="," horiz-adv-x="419" d="M92 -195v451h236v-184l-123 -267h-113z" />
<glyph unicode="-" horiz-adv-x="952" d="M61 553v215h830v-215h-830z" />
<glyph unicode="." horiz-adv-x="419" d="M92 0v256h236v-256h-236z" />
<glyph unicode="/" horiz-adv-x="1085" d="M41 10l778 1526h225v-113l-778 -1525h-225v112z" />
<glyph unicode="0" horiz-adv-x="1259" d="M102 297v840q0 70 24 128t69 100t107.5 65.5t137.5 23.5h379q78 0 139.5 -23.5t106.5 -65.5t68.5 -100.5t23.5 -127.5v-840q0 -70 -23.5 -128t-68.5 -100t-106.5 -65.5t-139.5 -23.5h-379q-76 0 -138 23.5t-107 65.5t-69 100t-24 128zM369 338q0 -53 41 -93t102 -40h236 q61 0 102 40t41 93v758q0 53 -41 93t-102 40h-236q-61 0 -102 -40t-41 -93v-758z" />
<glyph unicode="1" horiz-adv-x="686" d="M20 1198v154l318 82h205v-1434h-267v1198h-256z" />
<glyph unicode="2" horiz-adv-x="1136" d="M41 0v225l655 594q33 29 68 76.5t35 108.5v71q0 53 -41 93t-103 40h-512l-71 72v154h655q154 0 246 -84t92 -224v-122q0 -57 -15.5 -103.5t-44 -89.5t-70.5 -85t-95 -91l-430 -389v-21h665v-225h-1034z" />
<glyph unicode="3" horiz-adv-x="1146" d="M41 0v225h604q61 0 102 40t41 93v123q0 53 -40.5 93t-102.5 40h-379v226l410 348v20h-555l-70 70v156h963v-226l-410 -348v-20h113q78 0 139.5 -23.5t106.5 -65.5t68.5 -100.5t23.5 -128.5v-205q0 -70 -23.5 -128t-68.5 -100t-106.5 -65.5t-139.5 -23.5h-676z" />
<glyph unicode="4" horiz-adv-x="1218" d="M41 307v225l645 902h328v-902h164v-225h-164v-307h-266v307h-707zM338 532h410v564h-21l-389 -543v-21z" />
<glyph unicode="5" d="M102 0v225h584q61 0 102 40t41 93v164q0 53 -40.5 93t-102.5 40h-553v779h911v-154l-71 -72h-574v-327h359q78 0 139 -23.5t106.5 -65.5t69 -100.5t23.5 -128.5v-246q0 -70 -23.5 -128t-69 -100t-106.5 -65.5t-139 -23.5h-656z" />
<glyph unicode="6" horiz-adv-x="1218" d="M102 297v819q0 70 24 128.5t69 100t107.5 65.5t137.5 24h625v-154l-72 -72h-481q-61 0 -102 -40t-41 -93v-194h430q78 0 139 -23.5t106.5 -65.5t69 -100.5t23.5 -128.5v-266q0 -70 -23.5 -128t-69 -100t-106.5 -65.5t-139 -23.5h-359q-76 0 -138 23.5t-107 65.5t-69 100 t-24 128zM369 338q0 -53 41 -93t102 -40h215q61 0 102 40t41 93v184q0 53 -41 93t-102 40h-358v-317z" />
<glyph unicode="7" horiz-adv-x="1075" d="M41 1208v226h993v-226l-532 -1208h-246v113l471 1075v20h-686z" />
<glyph unicode="8" horiz-adv-x="1228" d="M82 297v174q0 86 35 137t78 80q49 35 112 49v21q-55 20 -96 53q-41 29 -69.5 73t-28.5 109v72v72q0 70 23.5 128t68.5 100t107.5 65.5t138.5 23.5h327q78 0 139.5 -23.5t106.5 -65.5t68.5 -100.5t23.5 -127.5v-144q0 -66 -30.5 -110.5t-65.5 -71.5q-43 -33 -98 -53v-21 q63 -10 112 -41q45 -29 79 -81t34 -144v-174q0 -70 -23.5 -128t-68.5 -100t-106.5 -65.5t-139.5 -23.5h-389q-76 0 -138.5 23.5t-107.5 65.5t-68.5 100t-23.5 128zM348 338q0 -53 41 -93t103 -40h245q61 0 102.5 40t41.5 93v154q0 53 -41 93t-103 40h-245q-61 0 -102.5 -40 t-41.5 -93v-154zM379 983q0 -53 41 -93t102 -40h185q61 0 102 40t41 93v113q0 53 -41 93t-102 40h-185q-61 0 -102 -40t-41 -93v-113z" />
<glyph unicode="9" horiz-adv-x="1218" d="M82 870v267q0 70 23.5 128t68.5 100t107.5 65.5t138.5 23.5h358q78 0 139.5 -23.5t106.5 -65.5t68.5 -100.5t23.5 -127.5v-820q0 -70 -23.5 -128t-68.5 -100t-106.5 -65.5t-139.5 -23.5h-624v225h553q61 0 102 40t41 93v195h-430q-76 0 -138.5 23.5t-107.5 65.5 t-68.5 100t-23.5 128zM348 911q0 -53 41 -93t103 -40h358v318q0 53 -41 93t-102 40h-215q-61 0 -102.5 -40t-41.5 -93v-185z" />
<glyph unicode=":" horiz-adv-x="460" d="M113 0v256h235v-256h-235zM113 788v256h235v-256h-235z" />
<glyph unicode=";" horiz-adv-x="460" d="M113 -195v451h235v-184l-123 -267h-112zM113 788v256h235v-256h-235z" />
<glyph unicode="&#x3c;" horiz-adv-x="1024" d="M72 410v225l860 379v-236l-563 -246v-20l563 -246v-235z" />
<glyph unicode="=" horiz-adv-x="983" d="M92 348v205h799v-205h-799zM92 768v205h799v-205h-799z" />
<glyph unicode="&#x3e;" horiz-adv-x="1024" d="M92 31v235l563 246v20l-563 246v236l860 -379v-225z" />
<glyph unicode="?" horiz-adv-x="1044" d="M31 1280v154h563q178 0 273.5 -90.5t95.5 -237.5v-102q0 -137 -62.5 -212t-163.5 -116l-102 -41q-12 -4 -27.5 -14.5t-30 -26.5t-24.5 -39t-10 -53v-62h-226v62q0 139 51.5 215t143.5 112l102 41q31 12 56.5 42t25.5 92v61q0 61 -40 102t-93 41h-461zM317 0v256h226v-256 h-226z" />
<glyph unicode="@" horiz-adv-x="1720" d="M123 246v942q0 66 23.5 121t66.5 97t103.5 65.5t134.5 23.5h819q74 0 134 -23.5t103 -65.5t66.5 -97t23.5 -121v-758h-184l-31 133h-10q-20 -43 -53 -76q-29 -33 -73 -55t-109 -22h-154q-66 0 -121 21.5t-94 59t-60.5 88t-21.5 107.5v113q0 57 21.5 107t60.5 88 t94.5 59.5t120.5 21.5h358v72q0 61 -35.5 97t-97.5 36h-696q-59 0 -94 -33t-39 -88v-872q0 -61 36 -97t97 -36h1055v-215h-1116q-74 0 -134.5 23.5t-103.5 65.5t-66.5 98t-23.5 120zM942 727q0 -47 27.5 -74.5t74.5 -27.5h134q47 0 77.5 23.5t51.5 53.5q23 33 34 76v82h-297 q-47 0 -74.5 -27.5t-27.5 -74.5v-31z" />
<glyph unicode="A" horiz-adv-x="1290" d="M31 0v113l440 1321h348l441 -1321v-113h-267l-92 307h-512l-92 -307h-266zM451 532h389l-185 615h-20z" />
<glyph unicode="B" horiz-adv-x="1290" d="M143 0v1434h666q78 0 141.5 -25t109.5 -68t71.5 -98t25.5 -117v-133q0 -66 -28.5 -108.5t-63.5 -69.5q-41 -31 -92 -47v-20q70 -12 123 -50q49 -33 86 -90t37 -157v-144q0 -61 -26 -116.5t-72 -98.5t-109.5 -67.5t-141.5 -24.5h-727zM410 225h378q78 0 121 41t43 103v112 q0 61 -43 102.5t-121 41.5h-378v-400zM410 850h317q78 0 121 41t43 102v72q0 61 -43 102t-121 41h-317v-358z" />
<glyph unicode="C" horiz-adv-x="1146" d="M102 317v799q0 70 24 128.5t69 100t107.5 65.5t137.5 24h666v-154l-72 -72h-522q-61 0 -102 -40t-41 -93v-717q0 -53 41 -93t102 -40h594v-225h-666q-76 0 -138 23.5t-107 65.5t-69 100.5t-24 127.5z" />
<glyph unicode="D" horiz-adv-x="1310" d="M143 0v1434h727q78 0 139.5 -24t106.5 -65.5t68.5 -100t23.5 -128.5v-799q0 -70 -23.5 -128t-68.5 -100t-106.5 -65.5t-139.5 -23.5h-727zM410 225h389q61 0 102 40t41 93v717q0 53 -41 93t-102 40h-389v-983z" />
<glyph unicode="E" horiz-adv-x="1167" d="M143 0v1434h983v-154l-71 -72h-645v-368h522v-226h-522v-389h716v-225h-983z" />
<glyph unicode="F" horiz-adv-x="1146" d="M143 0v1434h983v-154l-71 -72h-645v-440h512v-225h-512v-543h-267z" />
<glyph unicode="G" horiz-adv-x="1280" d="M102 317v799q0 70 24 128.5t69 100t107.5 65.5t137.5 24h666v-154l-72 -72h-522q-61 0 -102 -40t-41 -93v-717q0 -53 41 -93t102 -40h379v563h266v-788h-717q-76 0 -138 23.5t-107 65.5t-69 100.5t-24 127.5z" />
<glyph unicode="H" horiz-adv-x="1351" d="M143 0v1434h267v-594h532v594h266v-1434h-266v614h-532v-614h-267z" />
<glyph unicode="I" horiz-adv-x="552" d="M143 0v1434h267v-1434h-267z" />
<glyph unicode="J" horiz-adv-x="983" d="M20 -20v225h410q61 0 102 40t41 93v1096h267v-1137q0 -70 -23.5 -128t-69 -100t-106.5 -65.5t-139 -23.5h-482z" />
<glyph unicode="K" horiz-adv-x="1269" d="M143 0v1434h267v-594h256l276 594h266v-113l-327 -594l348 -614v-113h-266l-297 614h-256v-614h-267z" />
<glyph unicode="L" horiz-adv-x="1126" d="M143 0v1434h267v-1209h696v-225h-963z" />
<glyph unicode="M" horiz-adv-x="1822" d="M72 0v113l174 1321h317l338 -881h21l338 881h317l174 -1321v-113h-276l-103 1024h-20l-318 -829h-246l-317 829h-20l-103 -1024h-276z" />
<glyph unicode="N" horiz-adv-x="1351" d="M143 0v1434h277l532 -983h21l-31 368v615h266v-1434h-276l-533 983h-20l31 -369v-614h-267z" />
<glyph unicode="O" horiz-adv-x="1331" d="M102 297v840q0 70 24 128t69 100t107.5 65.5t137.5 23.5h451q78 0 139.5 -23.5t106.5 -65.5t68.5 -100.5t23.5 -127.5v-840q0 -70 -23.5 -128t-68.5 -100t-106.5 -65.5t-139.5 -23.5h-451q-76 0 -138 23.5t-107 65.5t-69 100t-24 128zM369 338q0 -53 41 -93t102 -40h307 q61 0 102.5 40t41.5 93v758q0 53 -41 93t-103 40h-307q-61 0 -102 -40t-41 -93v-758z" />
<glyph unicode="P" horiz-adv-x="1280" d="M143 0v1434h717q78 0 139.5 -24t106.5 -65.5t68.5 -100t23.5 -128.5v-348q0 -70 -23.5 -128t-68.5 -100t-106.5 -65.5t-139.5 -23.5h-450v-451h-267zM410 676h378q61 0 102.5 40t41.5 93v266q0 53 -41 93t-103 40h-378v-532z" />
<glyph unicode="Q" horiz-adv-x="1331" d="M102 297v840q0 70 24 128t69 100t107.5 65.5t137.5 23.5h451q78 0 139.5 -23.5t106.5 -65.5t68.5 -100.5t23.5 -127.5v-840q0 -70 -23.5 -128t-68.5 -100t-106.5 -65.5t-139.5 -23.5h-103l164 -216v-92h-256l-153 308h-103q-76 0 -138 23.5t-107 65.5t-69 100t-24 128z M369 338q0 -53 41 -93t102 -40h307q61 0 102.5 40t41.5 93v758q0 53 -41 93t-103 40h-307q-61 0 -102 -40t-41 -93v-758z" />
<glyph unicode="R" horiz-adv-x="1300" d="M143 0v1434h717q78 0 139.5 -24t106.5 -65.5t68.5 -100t23.5 -128.5v-266q0 -96 -37 -154.5t-80 -89.5q-53 -39 -118 -53l276 -440v-113h-266l-277 532h-286v-532h-267zM410 758h378q61 0 102.5 40t41.5 93v184q0 53 -41 93t-103 40h-378v-450z" />
<glyph unicode="S" d="M72 0v225h604q78 0 121 41t43 103v71q0 61 -21.5 93t-60.5 40l-420 93q-109 23 -182.5 104.5t-73.5 212.5v143q0 61 25.5 116.5t71.5 98.5t110.5 68t140.5 25h635v-154l-72 -72h-481q-78 0 -121 -41t-43 -102v-51q0 -61 21.5 -88t60.5 -35l420 -92q109 -23 182.5 -106 t73.5 -222v-164q0 -61 -25.5 -116.5t-71.5 -98.5t-109.5 -67.5t-141.5 -24.5h-686z" />
<glyph unicode="T" horiz-adv-x="1126" d="M20 1208v226h1086v-154l-72 -72h-338v-1208h-266v1208h-410z" />
<glyph unicode="U" horiz-adv-x="1372" d="M143 297v1137h267v-1096q0 -53 41 -93t102 -40h266q61 0 102.5 40t41.5 93v1096h266v-1137q0 -70 -23.5 -128t-68.5 -100t-106.5 -65.5t-139.5 -23.5h-410q-76 0 -138 23.5t-107.5 65.5t-69 100t-23.5 128z" />
<glyph unicode="V" horiz-adv-x="1249" d="M31 1321v113h266l317 -1147h21l317 1147h267v-113l-410 -1321h-369z" />
<glyph unicode="W" horiz-adv-x="1904" d="M41 1321v113h297l194 -1076h21l246 850h307l246 -850h20l195 1076h297v-113l-318 -1321h-327l-256 870h-21l-256 -870h-328z" />
<glyph unicode="X" horiz-adv-x="1269" d="M31 0v113l399 614l-358 594v113h266l287 -553h20l287 553h266v-113l-358 -594l399 -614v-113h-266l-328 573h-20l-328 -573h-266z" />
<glyph unicode="Y" horiz-adv-x="1208" d="M20 1321v113h267l307 -738h20l308 738h266v-113l-451 -891v-430h-266v430z" />
<glyph unicode="Z" horiz-adv-x="1095" d="M31 0v225l706 963v20h-614l-72 72v154h1014v-226l-707 -962v-21h707v-225h-1034z" />
<glyph unicode="[" horiz-adv-x="665" d="M123 -389v1986h522v-225h-256v-1536h256v-225h-522z" />
<glyph unicode="\" horiz-adv-x="1085" d="M41 1423v113h225l778 -1526v-112h-225z" />
<glyph unicode="]" horiz-adv-x="665" d="M20 -164h256v1536h-256v225h523v-1986h-523v225z" />
<glyph unicode="^" horiz-adv-x="901" d="M41 922l297 512h225l297 -512h-225l-174 307h-21l-174 -307h-225z" />
<glyph unicode="_" horiz-adv-x="870" d="M41 -143h788v-215h-788v215z" />
<glyph unicode="`" horiz-adv-x="512" d="M41 1454h256l154 -317h-185z" />
<glyph unicode="a" horiz-adv-x="1116" d="M72 256v113q0 57 21.5 107t61.5 88t94 59.5t120 21.5h368v72q0 112 -110 112h-2h-461v215h532q66 0 120 -21.5t94 -59t61.5 -88t21.5 -107.5v-768h-174l-31 123h-20q-25 -41 -59 -72q-33 -29 -76 -50t-101 -21h-163q-66 0 -120 21.5t-94 59t-61.5 88t-21.5 107.5z M328 297q0 -47 27.5 -74.5t74.5 -27.5h143q43 0 74 17t51 40q23 25 39 55v123h-307q-47 0 -74.5 -27.5t-27.5 -74.5v-31z" />
<glyph unicode="b" d="M143 0v1434h256v-390h389q66 0 120.5 -21.5t94 -59t61 -88t21.5 -107.5v-492q0 -57 -21.5 -107t-61 -88t-94 -59.5t-120.5 -21.5h-645zM399 215h318q53 0 82.5 27.5t29.5 74.5v410q0 47 -29.5 74.5t-82.5 27.5h-318v-614z" />
<glyph unicode="c" horiz-adv-x="972" d="M92 276v492q0 57 21.5 107.5t61.5 88t94.5 59t119.5 21.5h543v-153l-62 -62h-409q-53 0 -83 -27.5t-30 -74.5v-410q0 -47 30 -74.5t83 -27.5h471v-215h-543q-66 0 -120 21.5t-94 59.5t-61.5 88t-21.5 107z" />
<glyph unicode="d" d="M92 256v512q0 57 21.5 107.5t61.5 88t94.5 59t119.5 21.5h389v390h256v-1434h-174l-31 123h-20q-25 -41 -59 -72q-33 -29 -76 -50t-101 -21h-184q-66 0 -120 21.5t-94 59t-61.5 88t-21.5 107.5zM348 297q0 -47 30 -74.5t83 -27.5h153q43 0 74 17t51 40q23 25 39 55v522 h-317q-53 0 -83 -27.5t-30 -74.5v-430z" />
<glyph unicode="e" horiz-adv-x="1105" d="M92 276v512q0 57 21.5 107.5t61.5 88.5t94.5 59.5t119.5 21.5h328q66 0 120 -21.5t94 -59.5t61.5 -88.5t21.5 -107.5v-368h-666v-103q0 -47 30 -74.5t83 -27.5h512v-215h-584q-66 0 -120 21.5t-94 59.5t-61.5 88t-21.5 107zM348 635h410v113q0 47 -30 74.5t-83 27.5h-184 q-53 0 -83 -27.5t-30 -74.5v-113z" />
<glyph unicode="f" horiz-adv-x="788" d="M143 0v1178q0 57 21.5 107t61.5 88t94.5 59.5t119.5 21.5h389v-154l-61 -61h-266q-53 0 -78 -27.5t-25 -74.5v-205h308v-215h-308v-717h-256z" />
<glyph unicode="g" horiz-adv-x="1085" d="M20 0q0 66 26 112t56 76q37 35 82 58v20q-14 6 -24 19q-12 10 -19.5 25.5t-7.5 37.5v29q0 23 8.5 39t18.5 26t24 19v20q-27 18 -45 47q-20 27 -33.5 62t-13.5 86v112q0 57 21.5 107.5t61.5 88.5t94.5 59.5t119.5 21.5h236l112 184h215v-102l-123 -113v-20q45 -16 82 -47 q33 -29 57.5 -71t24.5 -108v-112q0 -57 -21.5 -107.5t-61.5 -88.5t-94 -59.5t-120 -21.5h-303q-20 -2 -27.5 -14t-7.5 -27v-20q0 -16 10.5 -27.5t26.5 -13.5h353q66 0 123 -24.5t100 -66.5t68.5 -95.5t25.5 -110.5v-61q0 -57 -25.5 -110.5t-68.5 -95.5t-100.5 -66.5 t-122.5 -24.5h-410q-66 0 -123 24.5t-100 66.5t-69 95t-26 111v61zM276 -31q0 -112 111 -112h2h307h2q111 0 111 112q0 113 -113 113h-307q-113 0 -113 -113zM348 727q0 -113 113 -113h164q113 0 112 113v10q0 113 -112 113h-164q-113 0 -113 -113v-10z" />
<glyph unicode="h" horiz-adv-x="1208" d="M143 0v1434h256v-390h389q66 0 120.5 -21.5t94 -59t61 -88t21.5 -107.5v-768h-256v727q0 47 -29.5 74.5t-82.5 27.5h-318v-829h-256z" />
<glyph unicode="i" horiz-adv-x="501" d="M123 0v1044h256v-1044h-256zM123 1178v286h256v-286h-256z" />
<glyph unicode="j" horiz-adv-x="542" d="M-61 -133h112q53 0 83 27.5t30 74.5v1075h256v-1116q0 -57 -21.5 -107t-61.5 -88t-94.5 -59.5t-119.5 -21.5h-184v215zM164 1178v286h256v-286h-256z" />
<glyph unicode="k" horiz-adv-x="1105" d="M143 0v1434h256v-789h195l194 399h256v-102l-235 -399l256 -441v-102h-256l-215 430h-195v-430h-256z" />
<glyph unicode="l" horiz-adv-x="593" d="M143 276v1158h256v-1117q0 -47 30 -74.5t83 -27.5h61v-215h-133q-66 0 -121 21.5t-94 59.5t-60.5 88t-21.5 107z" />
<glyph unicode="m" horiz-adv-x="1792" d="M123 0v1044h174l31 -122h20q25 41 60 71q33 29 75.5 50.5t100.5 21.5h102q74 0 123 -20.5t78 -45.5q35 -31 55 -67h10q20 37 56 67q31 27 78.5 46.5t121.5 19.5h164q66 0 120 -21.5t94 -59.5t61.5 -88t21.5 -108v-788h-256v748q0 47 -29.5 74.5t-83.5 27.5h-163 q-53 0 -83 -27.5t-30 -74.5v-748h-256v748q0 47 -29.5 74.5t-83.5 27.5h-112q-43 0 -74 -17.5t-51 -37.5q-23 -27 -39 -58v-737h-256z" />
<glyph unicode="n" horiz-adv-x="1187" d="M123 0v1044h174l31 -122h20q25 41 60 71q33 29 75.5 50.5t100.5 21.5h184q66 0 120 -21.5t94 -59.5t61.5 -88t21.5 -108v-788h-256v748q0 47 -29.5 74.5t-83.5 27.5h-153q-43 0 -74 -17.5t-51 -37.5q-23 -27 -39 -58v-737h-256z" />
<glyph unicode="o" horiz-adv-x="1126" d="M92 256v532q0 57 21.5 107.5t61.5 88.5t94.5 59.5t119.5 21.5h348q66 0 120 -21.5t94 -59.5t61.5 -88t21.5 -108v-532q0 -57 -21.5 -107.5t-61.5 -88t-94 -59t-120 -21.5h-348q-66 0 -120 21.5t-94 59t-61.5 88t-21.5 107.5zM348 297q0 -47 30 -74.5t83 -27.5h205 q53 0 82.5 27.5t29.5 74.5v451q0 47 -29.5 74.5t-82.5 27.5h-205q-53 0 -83 -27.5t-30 -74.5v-451z" />
<glyph unicode="p" horiz-adv-x="1157" d="M123 -348v1392h174l31 -122h20q25 41 60 71q33 29 75.5 50.5t100.5 21.5h184q66 0 120 -21.5t94 -59.5t61.5 -88t21.5 -108v-512q0 -57 -21.5 -107t-61.5 -88t-94 -59.5t-120 -21.5h-389v-348h-256zM379 215h317q53 0 83 27.5t30 74.5v431q0 47 -29.5 74.5t-83.5 27.5 h-153q-43 0 -74 -17.5t-51 -37.5q-23 -27 -39 -58v-522z" />
<glyph unicode="q" horiz-adv-x="1157" d="M92 276v492q0 57 21.5 107.5t61.5 88t94.5 59t119.5 21.5h645v-1392h-256v348h-389q-66 0 -120 21.5t-94 59.5t-61.5 88t-21.5 107zM348 317q0 -47 30 -74.5t83 -27.5h317v614h-317q-53 0 -83 -27.5t-30 -74.5v-410z" />
<glyph unicode="r" horiz-adv-x="798" d="M123 0v1044h174l31 -122h20q25 41 60 71q33 29 75.5 50.5t100.5 21.5h194v-225h-235q-43 0 -74 -16.5t-51 -35.5q-23 -23 -39 -51v-737h-256z" />
<glyph unicode="s" horiz-adv-x="993" d="M61 0v215h523q92 0 92 92q0 80 -82 92l-287 52q-45 8 -88 31.5t-75.5 60.5t-52 84t-19.5 100v41q0 57 21.5 107.5t61.5 88t94 59t120 21.5h522v-153l-62 -62h-399q-47 0 -74.5 -25.5t-27.5 -55.5q0 -45 17 -70t65 -33l297 -51q92 -16 158.5 -87t66.5 -179v-52 q0 -57 -21.5 -107t-61.5 -88t-94.5 -59.5t-119.5 -21.5h-574z" />
<glyph unicode="t" horiz-adv-x="808" d="M41 829v215h154l102 297h154v-297h256v-215h-256v-512q0 -47 29.5 -74.5t82.5 -27.5h205v-215h-276q-66 0 -120.5 21.5t-94 59.5t-61 88t-21.5 107v553h-154z" />
<glyph unicode="u" horiz-adv-x="1187" d="M123 256v788h256v-747q0 -47 29.5 -74.5t83.5 -27.5h153q43 0 74 17t51 40q23 25 39 55v737h256v-1044h-174l-31 123h-20q-25 -41 -60 -72q-33 -29 -75.5 -50t-100.5 -21h-184q-66 0 -120 21.5t-94 59t-61.5 88t-21.5 107.5z" />
<glyph unicode="v" horiz-adv-x="1044" d="M31 942v102h256l225 -778h20l226 778h256v-102l-338 -942h-307z" />
<glyph unicode="w" horiz-adv-x="1515" d="M41 942v102h276l134 -727h20l164 584h246l163 -584h21l133 727h277v-102l-256 -942h-267l-184 604h-20l-185 -604h-266z" />
<glyph unicode="x" horiz-adv-x="1024" d="M31 0v102l286 430l-266 410v102h256l195 -378h20l195 378h256v-102l-266 -410l286 -430v-102h-256l-215 389h-20l-215 -389h-256z" />
<glyph unicode="y" horiz-adv-x="1044" d="M31 942v102h266l235 -778h21l195 778h266v-102l-318 -932q-68 -184 -163 -271t-257 -87h-133v215h82q127 0 174 143z" />
<glyph unicode="z" horiz-adv-x="942" d="M41 0v215l522 594v20h-440l-62 62v153h840v-215l-522 -593v-21h522v-215h-860z" />
<glyph unicode="{" horiz-adv-x="737" d="M41 492v225q86 0 130 41t44 102v430q0 61 25.5 116.5t71.5 98.5t110.5 67.5t140.5 24.5h154v-225h-72q-78 0 -121 -41t-43 -102v-369q0 -76 -29.5 -124t-66.5 -75.5t-67 -36.5l-31 -10v-20l31 -10q30 -9 67 -36.5t66.5 -74.5t29.5 -125v-368q0 -61 43 -102.5t121 -41.5 h72v-225h-154q-76 0 -140.5 24.5t-110.5 67.5t-71.5 98.5t-25.5 116.5v430q0 61 -44 102.5t-130 41.5z" />
<glyph unicode="|" horiz-adv-x="573" d="M154 -348v1986h266v-1986h-266z" />
<glyph unicode="}" horiz-adv-x="737" d="M20 -164h72q78 0 121 41.5t43 102.5v368q0 78 29.5 125t66.5 74.5t68 36.5l31 10v20l-31 10q-31 9 -68 36.5t-66.5 75.5t-29.5 124v369q0 61 -43 102t-121 41h-72v225h154q78 0 141.5 -24.5t109.5 -67.5t71.5 -98t25.5 -117v-430q0 -61 44 -102t130 -41v-225 q-86 0 -130 -41t-44 -103v-430q0 -61 -25.5 -116.5t-71.5 -98.5t-109.5 -67.5t-141.5 -24.5h-154v225z" />
<glyph unicode="~" horiz-adv-x="1054" d="M82 461v235q0 100 49 152.5t135 52.5h62q43 0 72.5 -7t53 -19.5t42 -30t36.5 -35.5l93 -92q23 -23 41 -37t41 -14h10q51 0 51 51v174h205v-236q0 -100 -49.5 -152t-135.5 -52h-59q-86 0 -128 26.5t-81 65.5l-90 92q-23 23 -41 37t-41 14h-10q-51 0 -51 -51v-174h-205z " />
<glyph unicode="&#xa2;" horiz-adv-x="972" d="M92 276v492q0 57 21.5 107.5t61.5 88t94.5 59t119.5 21.5h62v195h256v-195h225v-153l-62 -62h-409q-53 0 -83 -27.5t-30 -74.5v-410q0 -47 30 -74.5t83 -27.5h471v-215h-225v-195h-256v195h-62q-66 0 -120 21.5t-94 59.5t-61.5 88t-21.5 107z" />
<glyph unicode="&#xa3;" horiz-adv-x="1136" d="M41 0v225h92q49 23 88 56q35 29 60.5 70.5t25.5 99.5v194h-143v225h143v267q0 70 23.5 128t68.5 100t107.5 65.5t138.5 23.5h297v-154l-72 -71h-153q-61 0 -102.5 -40t-41.5 -93v-226h297v-225h-297v-194q0 -57 -22.5 -96.5t-48.5 -63.5q-31 -29 -72 -45v-21h666v-225 h-1055z" />
<glyph unicode="&#xa5;" horiz-adv-x="1208" d="M20 1321v113h267l307 -738h20l308 738h266v-113l-311 -614h198v-205h-303l-35 -72v-51h338v-205h-338v-174h-266v174h-338v205h338v51l-37 72h-301v205h199z" />
<glyph unicode="&#xa8;" horiz-adv-x="798" d="M82 1178v256h225v-256h-225zM492 1178v256h225v-256h-225z" />
<glyph unicode="&#xa9;" horiz-adv-x="1925" d="M143 215v1004q0 57 21.5 107t61.5 88t94.5 59.5t119.5 21.5h1045q66 0 120 -21.5t94 -59.5t61.5 -88t21.5 -107v-1004q0 -57 -21.5 -107.5t-61.5 -88t-94.5 -59t-119.5 -21.5h-1045q-66 0 -120 21.5t-94 59t-61.5 88t-21.5 107.5zM399 266q0 -113 113 -112h901 q113 0 113 112v901q0 113 -113 113h-901q-113 0 -113 -113v-901zM645 582v268q0 100 68.5 167.5t177.5 67.5h369v-131l-52 -53h-256q-92 0 -92 -92v-184q0 -92 96 -93h304v-184h-369q-109 0 -177.5 67.5t-68.5 166.5z" />
<glyph unicode="&#xab;" horiz-adv-x="942" d="M61 553l205 369h205v-41l-184 -328l184 -328v-41h-205zM471 553l205 369h205v-41l-185 -328l185 -328v-41h-205z" />
<glyph unicode="&#xad;" horiz-adv-x="952" d="M61 553v215h830v-215h-830z" />
<glyph unicode="&#xae;" horiz-adv-x="1945" d="M143 215v1004q0 57 21.5 107t61.5 88t94.5 59.5t119.5 21.5h1065q66 0 120 -21.5t94 -59.5t61.5 -88t21.5 -107v-1004q0 -57 -21.5 -107.5t-61.5 -88t-94 -59t-120 -21.5h-1065q-66 0 -120 21.5t-94 59t-61.5 88t-21.5 107.5zM399 266q0 -113 113 -112h922q113 0 112 112 v901q0 113 -112 113h-922q-113 0 -113 -113v-901zM666 348v737h409q131 0 193.5 -57.5t62.5 -157.5v-92q0 -53 -16.5 -89t-34.5 -56q-23 -25 -51 -39l112 -174v-72h-225l-102 215h-133v-215h-215zM881 748h163q72 0 72 71v10q0 72 -72 72h-163v-153z" />
<glyph unicode="&#xb4;" horiz-adv-x="573" d="M82 1137l154 317h256l-226 -317h-184z" />
<glyph unicode="&#xb8;" horiz-adv-x="614" d="M82 -348h235q23 0 37.5 12t14.5 29v41q0 16 -14.5 28.5t-37.5 12.5h-122l-52 51v174h154v-82h51q86 0 135 -49t49 -135v-41q0 -86 -49 -135.5t-135 -49.5h-266v144z" />
<glyph unicode="&#xbb;" horiz-adv-x="942" d="M61 184v41l185 328l-185 328v41h205l205 -369l-205 -369h-205zM471 184v41l184 328l-184 328v41h205l205 -369l-205 -369h-205z" />
<glyph unicode="&#x2c6;" horiz-adv-x="880" d="M82 1116l235 338h246l236 -338h-226l-133 174l-133 -174h-225z" />
<glyph unicode="&#x2da;" horiz-adv-x="655" d="M82 1239v82q0 86 54 140.5t140 54.5h103q86 0 140 -54.5t54 -140.5v-82q0 -86 -54 -140.5t-140 -54.5h-103q-86 0 -140 54.5t-54 140.5zM236 1249q0 -31 19 -51t42 -20h61q23 0 42.5 20.5t19.5 50.5v62q0 31 -19.5 51t-42.5 20h-61q-23 0 -42 -20.5t-19 -50.5v-62z" />
<glyph unicode="&#x2dc;" horiz-adv-x="757" d="M82 1116v154q0 78 41 121t102 43h31q39 0 68 -23t45 -39l51 -51q23 -23 34 -32t27 -9q31 0 31 41v102h164v-153q0 -78 -41 -121t-103 -43h-30q-39 0 -64.5 19.5t-48.5 41.5l-51 52q-23 23 -34 32t-28 9q-31 0 -30 -41v-103h-164z" />
<glyph unicode="&#x401;" horiz-adv-x="1167" d="M143 0v1434h983v-154l-71 -72h-645v-368h522v-226h-522v-389h716v-225h-983zM318 1608v256h225v-256h-225zM728 1608v256h225v-256h-225z" />
<glyph unicode="&#x402;" horiz-adv-x="1402" d="M0 1208v226h942v-154l-72 -72h-297v-317h410q78 0 139.5 -23.5t106.5 -65.5t68.5 -100.5t23.5 -128.5v-297q0 -70 -23.5 -128t-68.5 -100t-106.5 -65.5t-139.5 -23.5h-154v225h82q61 0 102.5 40t41.5 93v215q0 53 -41 93.5t-103 40.5h-338v-666h-266v1208h-307z" />
<glyph unicode="&#x403;" horiz-adv-x="1085" d="M143 0v1434h922v-154l-72 -72h-583v-1208h-267zM512 1577l154 317h256l-226 -317h-184z" />
<glyph unicode="&#x404;" horiz-adv-x="1146" d="M102 317v799q0 70 24 128.5t69 100t107.5 65.5t137.5 24h666v-154l-72 -72h-522q-61 0 -102 -40t-41 -93v-235h460v-226h-460v-256q0 -53 41 -93t102 -40h594v-225h-666q-76 0 -138 23.5t-107 65.5t-69 100.5t-24 127.5z" />
<glyph unicode="&#x405;" d="M72 0v225h604q78 0 121 41t43 103v71q0 61 -21.5 93t-60.5 40l-420 93q-109 23 -182.5 104.5t-73.5 212.5v143q0 61 25.5 116.5t71.5 98.5t110.5 68t140.5 25h635v-154l-72 -72h-481q-78 0 -121 -41t-43 -102v-51q0 -61 21.5 -88t60.5 -35l420 -92q109 -23 182.5 -106 t73.5 -222v-164q0 -61 -25.5 -116.5t-71.5 -98.5t-109.5 -67.5t-141.5 -24.5h-686z" />
<glyph unicode="&#x406;" horiz-adv-x="552" d="M143 0v1434h267v-1434h-267z" />
<glyph unicode="&#x407;" horiz-adv-x="552" d="M-41 1608v256h225v-256h-225zM159 0v1434h267v-1434h-267zM369 1608v256h225v-256h-225z" />
<glyph unicode="&#x408;" horiz-adv-x="983" d="M20 -20v225h410q61 0 102 40t41 93v1096h267v-1137q0 -70 -23.5 -128t-69 -100t-106.5 -65.5t-139 -23.5h-482z" />
<glyph unicode="&#x409;" horiz-adv-x="2037" d="M0 -20v225h82q53 0 94 41t49 102l123 1086h860v-492h410q78 0 139.5 -23.5t106.5 -65.5t68.5 -100t23.5 -128v-308q0 -70 -23.5 -128t-68.5 -100t-106.5 -65.5t-139.5 -23.5h-676v1208h-348l-102 -860q-23 -199 -106 -283.5t-243 -84.5h-143zM1208 225h338q61 0 102.5 40 t41.5 93v226q0 53 -41 93t-103 40h-338v-492z" />
<glyph unicode="&#x40a;" horiz-adv-x="2017" d="M143 0v1434h267v-533h501v533h267v-533h419q78 0 139.5 -23.5t106.5 -65.5t68.5 -100t23.5 -128v-267q0 -70 -23.5 -128t-68.5 -100t-106.5 -65.5t-139.5 -23.5h-686v676h-501v-676h-267zM1178 225h348q61 0 102 40t41 93v185q0 53 -41 93t-102 40h-348v-451z" />
<glyph unicode="&#x40b;" horiz-adv-x="1423" d="M0 1208v226h942v-154l-72 -72h-297v-317h410q78 0 139.5 -23.5t106.5 -65.5t68.5 -100.5t23.5 -128.5v-573h-266v532q0 53 -41 93.5t-103 40.5h-338v-666h-266v1208h-307z" />
<glyph unicode="&#x40c;" horiz-adv-x="1269" d="M143 0v1434h267v-594h256l276 594h266v-113l-327 -594l348 -614v-113h-266l-297 614h-256v-614h-267zM543 1577l154 317h256l-226 -317h-184z" />
<glyph unicode="&#x40e;" horiz-adv-x="1208" d="M31 1321v113h266l307 -840h21l286 840h267v-113l-400 -983q-72 -176 -171 -267t-269 -91h-143v225h92q53 0 89 31.5t75 101.5zM277 1812v93h205v-82q0 -31 21.5 -51.5t60.5 -20.5h102q39 0 60.5 20.5t21.5 51.5v82h205v-93q0 -109 -58.5 -167t-167.5 -58h-225 q-109 0 -167 58.5t-58 166.5z" />
<glyph unicode="&#x40f;" horiz-adv-x="1361" d="M143 0v1434h267v-1209h542v1209h267v-1434h-400l-31 -266h-215l-30 266h-400z" />
<glyph unicode="&#x410;" horiz-adv-x="1290" d="M31 0v113l440 1321h348l441 -1321v-113h-267l-92 307h-512l-92 -307h-266zM451 532h389l-185 615h-20z" />
<glyph unicode="&#x411;" horiz-adv-x="1259" d="M143 0v1434h963v-154l-72 -72h-624v-327h440q78 0 139.5 -23.5t106.5 -65.5t68.5 -100.5t23.5 -128.5v-246q0 -70 -23.5 -128t-68.5 -100t-106.5 -65.5t-139.5 -23.5h-707zM410 225h368q61 0 102.5 40t41.5 93v164q0 53 -41 93t-103 40h-368v-430z" />
<glyph unicode="&#x412;" horiz-adv-x="1290" d="M143 0v1434h666q78 0 141.5 -25t109.5 -68t71.5 -98t25.5 -117v-133q0 -66 -28.5 -108.5t-63.5 -69.5q-41 -31 -92 -47v-20q70 -12 123 -50q49 -33 86 -90t37 -157v-144q0 -61 -26 -116.5t-72 -98.5t-109.5 -67.5t-141.5 -24.5h-727zM410 225h378q78 0 121 41t43 103v112 q0 61 -43 102.5t-121 41.5h-378v-400zM410 850h317q78 0 121 41t43 102v72q0 61 -43 102t-121 41h-317v-358z" />
<glyph unicode="&#x413;" horiz-adv-x="1085" d="M143 0v1434h922v-154l-72 -72h-583v-1208h-267z" />
<glyph unicode="&#x414;" horiz-adv-x="1402" d="M0 225h51q39 20 70 51q29 29 53.5 71t30.5 104l112 983h891v-1209h154v-491h-236l-30 266h-830l-30 -266h-236v491zM328 225h614v983h-379l-92 -757q-8 -61 -30.5 -101.5t-49.5 -62.5q-29 -27 -63 -41v-21z" />
<glyph unicode="&#x415;" horiz-adv-x="1167" d="M143 0v1434h983v-154l-71 -72h-645v-368h522v-226h-522v-389h716v-225h-983z" />
<glyph unicode="&#x416;" horiz-adv-x="1966" d="M41 0v113l348 614l-328 594v113h267l276 -594h246v594h266v-594h246l276 594h267v-113l-328 -594l348 -614v-113h-266l-297 614h-246v-614h-266v614h-246l-297 -614h-266z" />
<glyph unicode="&#x417;" horiz-adv-x="1126" d="M41 0v225h594q61 0 102 40t41 93v134q0 53 -46 93t-107 40h-328v225h317q61 0 102.5 40t41.5 93v92q0 53 -41 93t-103 40h-501l-72 72v154h645q78 0 139.5 -24t106.5 -65.5t68.5 -100t23.5 -128.5v-133q0 -70 -34 -113t-72 -69q-49 -29 -109 -43v-21q66 -10 119 -43 q47 -31 81.5 -87t34.5 -156v-134q0 -70 -23.5 -128t-68.5 -100t-106.5 -65.5t-138.5 -23.5h-666z" />
<glyph unicode="&#x418;" horiz-adv-x="1351" d="M143 0v1434h267v-615l-31 -368h20l533 983h276v-1434h-266v614l31 369h-21l-532 -983h-277z" />
<glyph unicode="&#x419;" horiz-adv-x="1351" d="M143 0v1434h267v-615l-31 -368h20l533 983h276v-1434h-266v614l31 369h-21l-532 -983h-277zM338 1822v93h205v-82q0 -31 21.5 -51.5t60.5 -20.5h102q39 0 60.5 20.5t21.5 51.5v82h205v-93q0 -109 -58.5 -167t-167.5 -58h-225q-109 0 -167 58.5t-58 166.5z" />
<glyph unicode="&#x41a;" horiz-adv-x="1269" d="M143 0v1434h267v-594h256l276 594h266v-113l-327 -594l348 -614v-113h-266l-297 614h-256v-614h-267z" />
<glyph unicode="&#x41b;" horiz-adv-x="1392" d="M0 -20v225h82q53 0 94 41t49 102l123 1086h901v-1434h-266v1208h-389l-102 -860q-23 -199 -106 -283.5t-243 -84.5h-143z" />
<glyph unicode="&#x41c;" horiz-adv-x="1822" d="M72 0v113l174 1321h317l338 -881h21l338 881h317l174 -1321v-113h-276l-103 1024h-20l-318 -829h-246l-317 829h-20l-103 -1024h-276z" />
<glyph unicode="&#x41d;" horiz-adv-x="1351" d="M143 0v1434h267v-594h532v594h266v-1434h-266v614h-532v-614h-267z" />
<glyph unicode="&#x41e;" horiz-adv-x="1331" d="M102 297v840q0 70 24 128t69 100t107.5 65.5t137.5 23.5h451q78 0 139.5 -23.5t106.5 -65.5t68.5 -100.5t23.5 -127.5v-840q0 -70 -23.5 -128t-68.5 -100t-106.5 -65.5t-139.5 -23.5h-451q-76 0 -138 23.5t-107 65.5t-69 100t-24 128zM369 338q0 -53 41 -93t102 -40h307 q61 0 102.5 40t41.5 93v758q0 53 -41 93t-103 40h-307q-61 0 -102 -40t-41 -93v-758z" />
<glyph unicode="&#x41f;" horiz-adv-x="1361" d="M143 0v1434h1076v-1434h-267v1208h-542v-1208h-267z" />
<glyph unicode="&#x420;" horiz-adv-x="1280" d="M143 0v1434h717q78 0 139.5 -24t106.5 -65.5t68.5 -100t23.5 -128.5v-348q0 -70 -23.5 -128t-68.5 -100t-106.5 -65.5t-139.5 -23.5h-450v-451h-267zM410 676h378q61 0 102.5 40t41.5 93v266q0 53 -41 93t-103 40h-378v-532z" />
<glyph unicode="&#x421;" horiz-adv-x="1146" d="M102 317v799q0 70 24 128.5t69 100t107.5 65.5t137.5 24h666v-154l-72 -72h-522q-61 0 -102 -40t-41 -93v-717q0 -53 41 -93t102 -40h594v-225h-666q-76 0 -138 23.5t-107 65.5t-69 100.5t-24 127.5z" />
<glyph unicode="&#x422;" horiz-adv-x="1126" d="M20 1208v226h1086v-154l-72 -72h-338v-1208h-266v1208h-410z" />
<glyph unicode="&#x423;" horiz-adv-x="1208" d="M31 1321v113h266l307 -840h21l286 840h267v-113l-400 -983q-72 -176 -171 -267t-269 -91h-143v225h92q53 0 89 31.5t75 101.5z" />
<glyph unicode="&#x424;" horiz-adv-x="1863" d="M102 430v574q0 70 24 128t69 100t107.5 65.5t137.5 23.5h359v184h266v-184h358q78 0 139.5 -23.5t106.5 -65.5t68.5 -100.5t23.5 -127.5v-574q0 -70 -23.5 -128t-68.5 -100t-106.5 -65.5t-139.5 -23.5h-358v-164h-266v164h-359q-76 0 -138 23.5t-107 65.5t-69 100 t-24 128zM369 471q0 -53 41 -93t102 -40h287v758h-287q-61 0 -102 -40t-41 -93v-492zM1065 338h287q61 0 102 40t41 93v492q0 53 -41 93t-102 40h-287v-758z" />
<glyph unicode="&#x425;" horiz-adv-x="1269" d="M31 0v113l399 614l-358 594v113h266l287 -553h20l287 553h266v-113l-358 -594l399 -614v-113h-266l-328 573h-20l-328 -573h-266z" />
<glyph unicode="&#x426;" horiz-adv-x="1392" d="M143 0v1434h267v-1209h522v1209h266v-1209h154v-491h-236l-31 266h-942z" />
<glyph unicode="&#x427;" horiz-adv-x="1300" d="M123 799v635h266v-574q0 -61 43 -102t121 -41h338v717h266v-1434h-266v492h-420q-76 0 -140.5 24.5t-110.5 67.5t-71.5 98.5t-25.5 116.5z" />
<glyph unicode="&#x428;" horiz-adv-x="2007" d="M143 0v1434h267v-1209h460v1209h267v-1209h460v1209h267v-1434h-1721z" />
<glyph unicode="&#x429;" horiz-adv-x="2068" d="M143 0v1434h267v-1209h460v1209h267v-1209h460v1209h267v-1209h164v-491h-236l-31 266h-1618z" />
<glyph unicode="&#x42a;" horiz-adv-x="1413" d="M0 1208v226h563v-492h430q78 0 139.5 -23.5t106.5 -65.5t68.5 -100t23.5 -128v-308q0 -70 -23.5 -128t-68.5 -100t-106.5 -65.5t-139.5 -23.5h-696v1208h-297zM563 225h359q61 0 102 40t41 93v226q0 53 -41 93t-102 40h-359v-492z" />
<glyph unicode="&#x42b;" horiz-adv-x="1843" d="M143 0v1434h267v-492h430q78 0 139 -23.5t106 -65.5t69 -100t24 -128v-308q0 -70 -24 -128t-69 -100t-106 -65.5t-139 -23.5h-697zM410 225h358q61 0 102 40t41 93v226q0 53 -41 93t-102 40h-358v-492zM1434 0v1434h266v-1434h-266z" />
<glyph unicode="&#x42c;" horiz-adv-x="1280" d="M143 0v1434h267v-492h450q78 0 139.5 -23.5t106.5 -65.5t68.5 -100t23.5 -128v-308q0 -70 -23.5 -128t-68.5 -100t-106.5 -65.5t-139.5 -23.5h-717zM410 225h378q61 0 102.5 40t41.5 93v226q0 53 -41 93t-103 40h-378v-492z" />
<glyph unicode="&#x42d;" horiz-adv-x="1146" d="M41 0v225h594q61 0 102 40t41 93v256h-461v226h461v235q0 53 -41 93t-102 40h-522l-72 72v154h666q78 0 139 -24t106 -65.5t68.5 -100t23.5 -128.5v-799q0 -70 -23.5 -128t-68.5 -100t-106.5 -65.5t-138.5 -23.5h-666z" />
<glyph unicode="&#x42e;" horiz-adv-x="1865" d="M143 0v1434h267v-594h299v297q0 70 23.5 128t68.5 100t107.5 65.5t138.5 23.5h378q78 0 139.5 -23.5t106.5 -65.5t68.5 -100.5t23.5 -127.5v-840q0 -70 -23.5 -128t-68.5 -100t-106.5 -65.5t-139.5 -23.5h-378q-76 0 -138.5 23.5t-107.5 65.5t-68.5 100t-23.5 128v317 h-299v-614h-267zM975 338q0 -53 41 -93t102 -40h236q61 0 102 40t41 93v758q0 53 -41 93t-102 40h-236q-61 0 -102 -40t-41 -93v-758z" />
<glyph unicode="&#x42f;" horiz-adv-x="1331" d="M92 0v113l277 440q-66 14 -117 53q-49 33 -84 90.5t-35 153.5v266q0 70 23.5 128.5t68.5 100t107.5 65.5t138.5 24h717v-1434h-266v532h-287l-277 -532h-266zM399 891q0 -53 41 -93t103 -40h379v450h-379q-61 0 -102.5 -40t-41.5 -93v-184z" />
<glyph unicode="&#x430;" horiz-adv-x="1116" d="M72 256v113q0 57 21.5 107t61.5 88t94 59.5t120 21.5h368v72q0 113 -112 112h-461v215h532q66 0 120 -21.5t94 -59t61.5 -88t21.5 -107.5v-768h-174l-31 123h-20q-25 -41 -59 -72q-33 -29 -76 -50t-101 -21h-163q-66 0 -120 21.5t-94 59t-61.5 88t-21.5 107.5zM328 297 q0 -47 27.5 -74.5t74.5 -27.5h143q43 0 74 17t51 40q23 25 39 55v123h-307q-47 0 -74.5 -27.5t-27.5 -74.5v-31z" />
<glyph unicode="&#x431;" horiz-adv-x="1146" d="M123 256v737q0 170 87 262.5t241 116.5l542 92l41 -225l-542 -92q-47 -8 -80 -47t-33 -117v-82h379q66 0 121 -21.5t94 -59.5t60.5 -88t21.5 -107v-369q0 -57 -21.5 -107.5t-60.5 -88t-94.5 -59t-120.5 -21.5h-338q-66 0 -121 21.5t-94 59t-60.5 88t-21.5 107.5zM379 297 q0 -47 29.5 -74.5t83.5 -27.5h194q53 0 83 27.5t30 74.5v287q0 47 -30 74.5t-83 27.5h-307v-389z" />
<glyph unicode="&#x432;" horiz-adv-x="1105" d="M123 0v1044h573q74 0 129.5 -21.5t92 -59t56 -88t19.5 -107.5v-31q0 -57 -23.5 -95t-51.5 -60q-35 -25 -78 -39v-11q55 -14 98 -43q39 -25 67.5 -65.5t28.5 -106.5v-41q0 -57 -21.5 -107t-61.5 -88t-94 -59.5t-120 -21.5h-614zM379 215h287q53 0 82.5 27.5t29.5 74.5 q0 113 -112 113h-287v-215zM379 645h266q92 0 92 92t-92 92h-266v-184z" />
<glyph unicode="&#x433;" horiz-adv-x="911" d="M123 0v1044h788v-153l-61 -62h-471v-829h-256z" />
<glyph unicode="&#x434;" horiz-adv-x="1198" d="M0 215h51q33 16 62 43q25 25 45 61.5t26 90.5l72 634h758v-829h143v-440h-225l-21 225h-665l-21 -225h-225v440zM328 215h430v614h-266l-52 -419q-6 -53 -24.5 -89t-38.5 -57q-23 -25 -49 -39v-10z" />
<glyph unicode="&#x435;" horiz-adv-x="1105" d="M92 276v512q0 57 21.5 107.5t61.5 88.5t94.5 59.5t119.5 21.5h328q66 0 120 -21.5t94 -59.5t61.5 -88.5t21.5 -107.5v-368h-666v-103q0 -47 30 -74.5t83 -27.5h512v-215h-584q-66 0 -120 21.5t-94 59.5t-61.5 88t-21.5 107zM348 635h410v113q0 47 -30 74.5t-83 27.5h-184 q-53 0 -83 -27.5t-30 -74.5v-113z" />
<glyph unicode="&#x436;" horiz-adv-x="1628" d="M41 0v102l256 441l-236 399v102h256l195 -399h174v399h256v-399h174l195 399h256v-102l-236 -399l256 -441v-102h-256l-215 430h-174v-430h-256v430h-174l-215 -430h-256z" />
<glyph unicode="&#x437;" horiz-adv-x="962" d="M41 0v215h481q53 0 83 27.5t30 74.5q0 113 -113 113h-256v215h256q92 0 92 92t-92 92h-399l-62 62v153h512q74 0 129.5 -21.5t92 -59t56 -88t19.5 -107.5v-31q0 -57 -25.5 -95t-56.5 -60q-37 -25 -81 -39v-11q51 -14 92 -43q37 -25 64.5 -65.5t27.5 -106.5v-41 q0 -57 -21.5 -107t-61.5 -88t-94.5 -59.5t-119.5 -21.5h-553z" />
<glyph unicode="&#x438;" horiz-adv-x="1167" d="M123 0v1044h256v-440l-31 -246h10l430 686h256v-1044h-256v440l31 246h-10l-430 -686h-256z" />
<glyph unicode="&#x439;" horiz-adv-x="1167" d="M123 0v1044h256v-440l-31 -246h10l430 686h256v-1044h-256v440l31 246h-10l-430 -686h-256zM287 1434v82h194v-72q0 -31 21.5 -51.5t60.5 -20.5h82q39 0 60.5 20.5t21.5 51.5v72h195v-82q0 -117 -57.5 -171.5t-188.5 -54.5h-143q-131 0 -188.5 54.5t-57.5 171.5z" />
<glyph unicode="&#x43a;" horiz-adv-x="1085" d="M123 0v1044h256v-399h194l195 399h256v-102l-236 -399l256 -441v-102h-256l-215 430h-194v-430h-256z" />
<glyph unicode="&#x43b;" d="M0 -20v215h72q27 0 51 12t44.5 30.5t33 40t14.5 39.5l82 727h758v-1044h-256v829h-267l-61 -512q-20 -170 -105 -253.5t-233 -83.5h-133z" />
<glyph unicode="&#x43c;" horiz-adv-x="1515" d="M92 0v113l123 931h287l246 -645h20l246 645h286l123 -931v-113h-256l-71 686h-21l-205 -563h-225l-205 563h-20l-72 -686h-256z" />
<glyph unicode="&#x43d;" horiz-adv-x="1167" d="M123 0v1044h256v-409h409v409h256v-1044h-256v420h-409v-420h-256z" />
<glyph unicode="&#x43e;" horiz-adv-x="1126" d="M92 256v532q0 57 21.5 107.5t61.5 88.5t94.5 59.5t119.5 21.5h348q66 0 120 -21.5t94 -59.5t61.5 -88t21.5 -108v-532q0 -57 -21.5 -107.5t-61.5 -88t-94 -59t-120 -21.5h-348q-66 0 -120 21.5t-94 59t-61.5 88t-21.5 107.5zM348 297q0 -47 30 -74.5t83 -27.5h205 q53 0 82.5 27.5t29.5 74.5v451q0 47 -29.5 74.5t-82.5 27.5h-205q-53 0 -83 -27.5t-30 -74.5v-451z" />
<glyph unicode="&#x43f;" d="M123 0v1044h932v-1044h-256v829h-420v-829h-256z" />
<glyph unicode="&#x440;" horiz-adv-x="1157" d="M123 -348v1392h174l31 -122h20q25 41 60 71q33 29 75.5 50.5t100.5 21.5h184q66 0 120 -21.5t94 -59.5t61.5 -88t21.5 -108v-512q0 -57 -21.5 -107t-61.5 -88t-94 -59.5t-120 -21.5h-389v-348h-256zM379 215h317q53 0 83 27.5t30 74.5v431q0 47 -29.5 74.5t-83.5 27.5 h-153q-43 0 -74 -17.5t-51 -37.5q-23 -27 -39 -58v-522z" />
<glyph unicode="&#x441;" horiz-adv-x="972" d="M92 276v492q0 57 21.5 107.5t61.5 88t94.5 59t119.5 21.5h543v-153l-62 -62h-409q-53 0 -83 -27.5t-30 -74.5v-410q0 -47 30 -74.5t83 -27.5h471v-215h-543q-66 0 -120 21.5t-94 59.5t-61.5 88t-21.5 107z" />
<glyph unicode="&#x442;" horiz-adv-x="952" d="M20 829v215h912v-153l-51 -62h-277v-829h-256v829h-328z" />
<glyph unicode="&#x443;" horiz-adv-x="1044" d="M31 942v102h266l235 -778h21l195 778h266v-102l-318 -932q-68 -184 -163 -271t-257 -87h-133v215h82q127 0 174 143z" />
<glyph unicode="&#x444;" horiz-adv-x="1566" d="M92 276v492q0 57 21.5 107.5t61.5 88t94.5 59t119.5 21.5h266v390h256v-390h267q66 0 120 -21.5t94 -59t61.5 -88t21.5 -107.5v-492q0 -57 -21.5 -107t-61.5 -88t-94.5 -59.5t-119.5 -21.5h-267v-348h-256v348h-266q-66 0 -120 21.5t-94 59.5t-61.5 88t-21.5 107z M348 317q0 -47 30 -74.5t83 -27.5h194v614h-194q-53 0 -83 -27.5t-30 -74.5v-410zM911 215h195q53 0 83 27.5t30 74.5v410q0 47 -30 74.5t-83 27.5h-195v-614z" />
<glyph unicode="&#x445;" horiz-adv-x="1024" d="M31 0v102l286 430l-266 410v102h256l195 -378h20l195 378h256v-102l-266 -410l286 -430v-102h-256l-215 389h-20l-215 -389h-256z" />
<glyph unicode="&#x446;" horiz-adv-x="1218" d="M123 0v1044h256v-829h399v829h256v-829h144v-440h-226l-20 225h-809z" />
<glyph unicode="&#x447;" horiz-adv-x="1116" d="M102 614v430h256v-389q0 -47 30 -74.5t83 -27.5h266v491h256v-1044h-256v338h-338q-66 0 -120 21.5t-94 59.5t-61.5 88t-21.5 107z" />
<glyph unicode="&#x448;" horiz-adv-x="1689" d="M123 0v1044h256v-829h338v829h256v-829h338v829h256v-1044h-1444z" />
<glyph unicode="&#x449;" horiz-adv-x="1751" d="M123 0v1044h256v-829h338v829h256v-829h338v829h256v-829h143v-440h-225l-31 225h-1331z" />
<glyph unicode="&#x44a;" d="M0 829v215h506l-4 -4v-323h307q66 0 120 -21.5t94 -59.5t61.5 -88t21.5 -108v-164q0 -57 -21.5 -107t-61.5 -88t-94.5 -59.5t-119.5 -21.5h-563v829h-246zM502 215h235q53 0 83 27.5t30 74.5v82q0 47 -29.5 75t-83.5 28h-235v-287z" />
<glyph unicode="&#x44b;" horiz-adv-x="1556" d="M123 0v1044h256v-327h307q66 0 120 -21.5t94 -59.5t61.5 -88t21.5 -108v-164q0 -57 -21.5 -107t-61.5 -88t-94 -59.5t-120 -21.5h-563zM379 215h235q53 0 83 27.5t30 74.5v82q0 47 -29.5 75t-83.5 28h-235v-287zM1178 0v1044h256v-1044h-256z" />
<glyph unicode="&#x44c;" horiz-adv-x="1075" d="M123 0v1044h256v-327h328q66 0 120 -21.5t94 -59.5t61.5 -88t21.5 -108v-164q0 -57 -21.5 -107t-61.5 -88t-94.5 -59.5t-119.5 -21.5h-584zM379 215h256q53 0 83 27.5t30 74.5v82q0 47 -30 75t-83 28h-256v-287z" />
<glyph unicode="&#x44d;" horiz-adv-x="972" d="M41 0v215h471q53 0 83 27.5t30 74.5v103h-359v215h359v92q0 47 -30 74.5t-83 27.5h-410l-61 62v153h543q66 0 120 -21.5t94 -59t61.5 -88t21.5 -107.5v-492q0 -57 -21.5 -107t-61.5 -88t-94.5 -59.5t-119.5 -21.5h-543z" />
<glyph unicode="&#x44e;" horiz-adv-x="1566" d="M123 0v1044h256v-409h215v153q0 57 21.5 107.5t61.5 88.5t94 59.5t120 21.5h287q66 0 120 -21.5t94 -59.5t61.5 -88t21.5 -108v-532q0 -57 -21.5 -107.5t-61.5 -88t-94.5 -59t-119.5 -21.5h-287q-66 0 -120 21.5t-94 59t-61.5 88t-21.5 107.5v164h-215v-420h-256z M850 297q0 -47 29.5 -74.5t83.5 -27.5h143q53 0 83 27.5t30 74.5v451q0 47 -30 74.5t-83 27.5h-143q-53 0 -83 -27.5t-30 -74.5v-451z" />
<glyph unicode="&#x44f;" horiz-adv-x="1105" d="M72 0v113l184 266q-43 20 -76 53q-33 31 -55.5 77t-22.5 116v143q0 57 21.5 107.5t61.5 88t94.5 59t119.5 21.5h584v-1044h-256v348h-225l-174 -348h-256zM358 666q0 -47 30 -75t83 -28h256v266h-256q-53 0 -83 -27.5t-30 -74.5v-61z" />
<glyph unicode="&#x451;" horiz-adv-x="1105" d="M92 276v512q0 57 21.5 107.5t61.5 88.5t94.5 59.5t119.5 21.5h328q66 0 120 -21.5t94 -59.5t61.5 -88.5t21.5 -107.5v-368h-666v-103q0 -47 30 -74.5t83 -27.5h512v-215h-584q-66 0 -120 21.5t-94 59.5t-61.5 88t-21.5 107zM236 1250v256h225v-256h-225zM348 635h410v113 q0 47 -30 74.5t-83 27.5h-184q-53 0 -83 -27.5t-30 -74.5v-113zM646 1250v256h225v-256h-225z" />
<glyph unicode="&#x452;" horiz-adv-x="1228" d="M41 1014v215h154l71 225h185v-225h276v-215h-276v-144h399q66 0 120 -21.5t94 -59t61.5 -88t21.5 -107.5v-328q0 -57 -21.5 -107t-61.5 -88t-94.5 -59.5t-119.5 -21.5h-154v215h82q53 0 83 27.5t30 74.5v246q0 47 -30 74.5t-83 27.5h-327v-655h-256v1014h-154z" />
<glyph unicode="&#x453;" horiz-adv-x="911" d="M123 0v1044h788v-153l-61 -62h-471v-829h-256zM430 1209l154 317h256l-226 -317h-184z" />
<glyph unicode="&#x454;" horiz-adv-x="972" d="M92 276v492q0 57 21.5 107.5t61.5 88t94.5 59t119.5 21.5h543v-153l-62 -62h-409q-53 0 -83 -27.5t-30 -74.5v-92h359v-215h-359v-103q0 -47 30 -74.5t83 -27.5h471v-215h-543q-66 0 -120 21.5t-94 59.5t-61.5 88t-21.5 107z" />
<glyph unicode="&#x455;" horiz-adv-x="993" d="M61 0v215h523q92 0 92 92q0 80 -82 92l-287 52q-45 8 -88 31.5t-75.5 60.5t-52 84t-19.5 100v41q0 57 21.5 107.5t61.5 88t94 59t120 21.5h522v-153l-62 -62h-399q-47 0 -74.5 -25.5t-27.5 -55.5q0 -45 17 -70t65 -33l297 -51q92 -16 158.5 -87t66.5 -179v-52 q0 -57 -21.5 -107t-61.5 -88t-94.5 -59.5t-119.5 -21.5h-574z" />
<glyph unicode="&#x456;" horiz-adv-x="501" d="M123 0v1044h256v-1044h-256zM123 1178v286h256v-286h-256z" />
<glyph unicode="&#x457;" horiz-adv-x="593" d="M-20 1229v256h225v-256h-225zM184 0v1044h256v-1044h-256zM390 1229v256h225v-256h-225z" />
<glyph unicode="&#x458;" horiz-adv-x="542" d="M-61 -133h112q53 0 83 27.5t30 74.5v1075h256v-1116q0 -57 -21.5 -107t-61.5 -88t-94.5 -59.5t-119.5 -21.5h-184v215zM164 1178v286h256v-286h-256z" />
<glyph unicode="&#x459;" horiz-adv-x="1720" d="M0 -20v215h72q27 0 51 12t44.5 30.5t33 40t14.5 39.5l82 727h737v-327h328q66 0 120 -21.5t94 -59.5t61.5 -88t21.5 -108v-164q0 -57 -21.5 -107t-61.5 -88t-94.5 -59.5t-119.5 -21.5h-584v829h-246l-61 -512q-20 -170 -105 -253.5t-233 -83.5h-133zM1034 215h256 q53 0 83 27.5t30 74.5v82q0 47 -30 75t-83 28h-256v-287z" />
<glyph unicode="&#x45a;" horiz-adv-x="1720" d="M123 0v1044h256v-368h389v368h256v-368h338q66 0 120 -21.5t94 -59.5t61.5 -88t21.5 -108v-123q0 -57 -21.5 -107t-61.5 -88t-94.5 -59.5t-119.5 -21.5h-594v461h-389v-461h-256zM1024 215h266q53 0 83 27.5t30 74.5v41q0 47 -30 75t-83 28h-266v-246z" />
<glyph unicode="&#x45b;" horiz-adv-x="1249" d="M41 1014v215h164l61 225h185v-225h276v-215h-276v-144h399q66 0 120 -21.5t94 -59t61.5 -88t21.5 -107.5v-594h-256v553q0 47 -30 74.5t-83 27.5h-327v-655h-256v1014h-154z" />
<glyph unicode="&#x45c;" horiz-adv-x="1083" d="M125 0v1044h256v-399h194l195 399h256v-102l-236 -399l256 -441v-102h-256l-215 430h-194v-430h-256zM453 1209l154 317h256l-226 -317h-184z" />
<glyph unicode="&#x45e;" horiz-adv-x="1044" d="M31 942v102h266l235 -778h21l195 778h266v-102l-318 -932q-68 -184 -163 -271t-257 -87h-133v215h82q127 0 174 143zM205 1444v82h194v-72q0 -31 21.5 -51.5t60.5 -20.5h82q39 0 60.5 20.5t21.5 51.5v72h195v-82q0 -117 -57.5 -171.5t-188.5 -54.5h-143 q-131 0 -188.5 54.5t-57.5 171.5z" />
<glyph unicode="&#x45f;" d="M123 0v1044h256v-829h420v829h256v-1044h-338l-31 -225h-194l-31 225h-338z" />
<glyph unicode="&#x490;" horiz-adv-x="1085" d="M143 0v1434h676l31 184h215v-410h-655v-1208h-267z" />
<glyph unicode="&#x491;" horiz-adv-x="911" d="M123 0v1044h563l31 175h194v-390h-532v-829h-256z" />
<glyph unicode="&#x2000;" horiz-adv-x="957" />
<glyph unicode="&#x2001;" horiz-adv-x="1915" />
<glyph unicode="&#x2002;" horiz-adv-x="957" />
<glyph unicode="&#x2003;" horiz-adv-x="1915" />
<glyph unicode="&#x2004;" horiz-adv-x="638" />
<glyph unicode="&#x2005;" horiz-adv-x="478" />
<glyph unicode="&#x2006;" horiz-adv-x="319" />
<glyph unicode="&#x2007;" horiz-adv-x="319" />
<glyph unicode="&#x2008;" horiz-adv-x="239" />
<glyph unicode="&#x2009;" horiz-adv-x="383" />
<glyph unicode="&#x200a;" horiz-adv-x="106" />
<glyph unicode="&#x2010;" horiz-adv-x="952" d="M61 553v215h830v-215h-830z" />
<glyph unicode="&#x2011;" horiz-adv-x="952" d="M61 553v215h830v-215h-830z" />
<glyph unicode="&#x2012;" horiz-adv-x="952" d="M61 553v215h830v-215h-830z" />
<glyph unicode="&#x2013;" horiz-adv-x="1116" d="M61 532v205h994v-205h-994z" />
<glyph unicode="&#x2014;" horiz-adv-x="1679" d="M61 532v205h1557v-205h-1557z" />
<glyph unicode="&#x2018;" horiz-adv-x="419" d="M92 983v184l123 267h113v-451h-236z" />
<glyph unicode="&#x2019;" horiz-adv-x="419" d="M92 983v451h236v-185l-123 -266h-113z" />
<glyph unicode="&#x201a;" horiz-adv-x="419" d="M92 -195v451h236v-184l-123 -267h-113z" />
<glyph unicode="&#x201c;" horiz-adv-x="788" d="M92 983v184l123 267h113v-451h-236zM461 983v184l123 267h112v-451h-235z" />
<glyph unicode="&#x201d;" horiz-adv-x="788" d="M92 983v451h236v-185l-123 -266h-113zM461 983v451h235v-185l-123 -266h-112z" />
<glyph unicode="&#x201e;" horiz-adv-x="788" d="M92 -195v451h236v-184l-123 -267h-113zM461 -195v451h235v-184l-123 -267h-112z" />
<glyph unicode="&#x2026;" horiz-adv-x="1423" d="M92 0v256h236v-256h-236zM594 0v256h235v-256h-235zM1096 0v256h235v-256h-235z" />
<glyph unicode="&#x202f;" horiz-adv-x="383" />
<glyph unicode="&#x2039;" horiz-adv-x="655" d="M61 532l308 441h204v-92l-245 -349l245 -348v-92h-204z" />
<glyph unicode="&#x203a;" horiz-adv-x="655" d="M82 92v92l246 348l-246 349v92h205l307 -441l-307 -440h-205z" />
<glyph unicode="&#x205f;" horiz-adv-x="478" />
<glyph unicode="&#x20ac;" horiz-adv-x="1249" d="M61 451v204h144v123h-144v205h144v133q0 70 23.5 128.5t68.5 100t107.5 65.5t138.5 24h665v-154l-71 -72h-523q-61 0 -102 -40t-41 -93v-92h481v-205h-481v-123h481v-204h-481v-93q0 -53 41 -93t102 -40h594v-225h-665q-76 0 -138.5 23.5t-107.5 65.5t-68.5 100.5 t-23.5 127.5v134h-144z" />
<glyph unicode="&#x2122;" horiz-adv-x="1566" d="M0 1270v164h614v-123l-41 -41h-174v-471h-184v471h-215zM655 799v71l82 564h185l153 -369h10l154 369h184l82 -564v-71h-174l-41 399h-10l-133 -317h-133l-133 317h-11l-41 -399h-174z" />
<glyph unicode="&#x25fc;" horiz-adv-x="1044" d="M0 0v1044h1044v-1044h-1044z" />
</font>
</defs>
</svg>
